<svg width="72" height="72" viewBox="0 0 72 72" fill="none" xmlns="http://www.w3.org/2000/svg">
<path d="M58 38.7452C58 47.9546 53.3495 56.2191 45.4265 59.7011C44.0123 60.3227 41.4277 60.6546 38.8088 60.8306C36.3023 60.999 35.5 61.96 29.1029 60.8306C22.7059 59.7011 13 51.1716 13 38.7452C13 26.3188 22.9265 18.0099 29.1029 17.5687C35.2794 17.1275 31.0882 15.804 38.8088 16.0246C46.5294 16.2452 58 24.1864 58 38.7452Z" fill="#FFEE78"/>
<ellipse cx="26.6764" cy="36.098" rx="2.64706" ry="2.64706" fill="black"/>
<ellipse cx="43.4412" cy="33.451" rx="2.64706" ry="2.64706" fill="black"/>
<path fill-rule="evenodd" clip-rule="evenodd" d="M48.5751 40.7378C49.5457 40.6496 50.4041 41.3649 50.4923 42.3355C50.8042 45.7665 47.8569 52.1133 39.0416 53.2886C34.6453 53.8748 31.3373 52.8191 28.9583 51.1853C26.6208 49.58 25.2832 47.4906 24.637 46.1119C24.2233 45.2295 24.6034 44.1787 25.4859 43.7651C26.3683 43.3514 27.4191 43.7315 27.8327 44.6139C28.2894 45.5882 29.268 47.1164 30.9563 48.2759C32.603 49.4067 35.0303 50.2628 38.5752 49.7902C45.6423 48.8479 47.1067 44.077 46.9774 42.6551C46.8892 41.6844 47.6045 40.8261 48.5751 40.7378Z" fill="black"/>
</svg>
