<svg width="72" height="72" viewBox="0 0 72 72" fill="none" xmlns="http://www.w3.org/2000/svg">
<path fill-rule="evenodd" clip-rule="evenodd" d="M37.4342 43.4428C38.5381 43.4068 39.4623 44.2726 39.4982 45.3766C39.9191 58.2952 35.1008 60.5074 31.2941 61.9946C30.2653 62.3966 29.1054 61.8884 28.7034 60.8596C28.3015 59.8307 28.8097 58.6708 29.8385 58.2689C31.6548 57.5593 35.8819 57.2198 35.5003 45.5068C35.4644 44.4028 36.3302 43.4787 37.4342 43.4428Z" fill="#93B96F"/>
<path d="M60.4999 35.0001C59.4999 30.0001 56.4999 28.5317 50.7872 28.5317L50.8401 28.4666C52.4364 26.5026 56.132 21.9557 52.4999 18.0001C48.827 14.0001 42.9999 14.0001 38.9999 18.0001C36.7699 13.8658 30.5897 12 26.0402 17C21.4908 22 23.4998 24 26.0402 28.5317C13.5 28.5316 11.5 41.5001 20.3373 44.3574C17.1076 48.0799 20.6338 52.1816 22.9563 53.1318C28.2311 55.2899 33.145 53.2944 36.3366 47.6774C39.0418 50.762 43.6694 55.4404 50.9999 53.0001C53.4043 52.1996 57.4857 50.0158 55.4999 44.3574C59.3247 42.8564 61.4999 40.0001 60.4999 35.0001Z" fill="#93B96F"/>
<path d="M49.5002 41C49.5002 41 45 37.5 41 37" stroke="#6B9146" stroke-width="2" stroke-linecap="round" stroke-linejoin="round"/>
<path d="M27.5 40C30.5 37.5 34 36.5 34 36.5" stroke="#6B9146" stroke-width="2" stroke-linecap="round" stroke-linejoin="round"/>
<path d="M39.2951 31.8721C39.2562 30.1566 39.2951 27 41 23" stroke="#6B9146" stroke-width="2" stroke-linecap="round" stroke-linejoin="round"/>
</svg>
