<svg width="350" height="350" viewBox="0 0 350 350" fill="none" xmlns="http://www.w3.org/2000/svg">
<path fill-rule="evenodd" clip-rule="evenodd" d="M185.48 196.973C185.332 189.926 187.286 179.475 195.072 168.073C203.078 156.351 199.149 150.841 194.316 144.065C190.697 138.991 186.572 133.207 186.572 123.573C186.572 113.564 189.937 108.403 192.924 103.821C196.651 98.1033 199.791 93.2866 195.072 81.0735C193.229 76.3016 191.291 72.1883 189.56 68.5144C183.449 55.5418 179.917 48.0458 192.218 36.3677C186.429 37.4657 180.631 39.6554 174.446 42.6411C169.965 43.9687 165.129 45.2964 160.047 46.6917C119.192 57.9084 62.3992 73.5006 45.946 128.641C27.446 190.641 52.946 228.641 74.946 255.141C96.946 281.641 130.946 311.141 145.446 290.641C156.843 274.529 176.573 222.348 185.48 196.973Z" fill="#F0B559"/>
<path fill-rule="evenodd" clip-rule="evenodd" d="M191.705 36.4685C213.238 32.1462 234.501 42.7999 274.946 83.6417C325.946 135.142 320.446 200.642 305.446 241.642C291.182 280.631 272.848 269.43 244.855 252.328C243.411 251.447 241.942 250.549 240.446 249.642C216.046 234.842 193.946 207.475 185.946 195.642C185.678 196.409 185.399 197.204 185.11 198.025C184.739 190.99 186.481 180.057 194.664 168.074C202.67 156.352 198.74 150.842 193.908 144.066C190.289 138.992 186.164 133.208 186.164 123.574C186.164 113.565 189.528 108.404 192.515 103.822C196.243 98.1039 199.383 93.2872 194.664 81.074C192.82 76.3022 190.883 72.1889 189.152 68.515L189.152 68.5149C183.058 55.5796 179.529 48.0893 191.705 36.4685Z" fill="#F0B559"/>
<path d="M192.595 35.8943C214.128 31.572 235.391 42.2257 275.836 83.0675C326.836 134.567 321.336 200.067 306.336 241.067C292.072 280.057 273.738 268.856 245.745 251.754C244.301 250.872 242.832 249.975 241.336 249.067C216.936 234.267 194.836 206.901 186.836 195.067C186.568 195.835 186.289 196.63 186 197.451" stroke="#FED18B" stroke-width="3" stroke-linecap="round" stroke-linejoin="round"/>
<path d="M185.48 196.606C176.573 221.98 156.843 274.161 145.446 290.273C130.946 310.773 96.946 281.273 74.946 254.773C52.946 228.273 27.446 190.273 45.946 128.273C62.3992 73.1329 119.192 57.5407 160.047 46.3241C165.129 44.9287 169.965 43.6011 174.446 42.2734C180.631 39.2878 186.429 37.098 192.218 36" stroke="#FED18B" stroke-width="3" stroke-linecap="round" stroke-linejoin="round"/>
<path opacity="0.5" d="M124.334 261.194C109.453 250.129 89.6637 235.417 74.8344 209.614C66.1799 194.556 62.0593 178.159 61 162" stroke="#D88916" stroke-width="4" stroke-linecap="round"/>
<path d="M185 199C186.833 192.235 190.8 176.765 192 169" stroke="#FED18B" stroke-width="3" stroke-linecap="round" stroke-linejoin="round"/>
<g filter="url(#filter0_d_402_2360)">
<path d="M34.3874 111.389C52.3874 60.3889 119.888 35.8888 145.387 25.3888C170.887 14.8888 213.205 15.868 243.887 36.8888C256.074 45.2379 287.387 70.3889 302.387 88.8889C323.874 115.389 320.387 133.889 308.387 133.889C296.387 133.889 291.887 117.889 267.887 120.889C243.887 123.889 261.387 171.889 243.887 171.889C226.387 171.889 235.387 145.784 215.387 137.099C195.387 128.413 192.387 143.889 170.887 143.889C149.387 143.889 135.048 121.099 105.547 128.099C76.0472 135.099 12.8535 172.402 34.3874 111.389Z" fill="#795232"/>
</g>
<path d="M176.887 96.4561C176.887 91.9561 179.887 91.4561 183.387 91.4561C185.887 92.9561 186.387 97.4561 184.387 99.4561C182.387 101.456 176.887 100.956 176.887 96.4561Z" fill="#242424"/>
<path d="M200.887 97.9561C200.887 93.4561 203.887 92.9561 207.387 92.9561C209.887 94.4561 210.387 98.9561 208.387 100.956C206.387 102.956 200.887 102.456 200.887 97.9561Z" fill="#242424"/>
<path d="M179.887 112.55C177.704 109.55 180.387 105.889 183.887 107.889C187.387 109.889 188.945 111.528 194.387 112.55C198.189 113.264 201.52 110.889 205.204 109.889C208.887 108.889 210.387 112.932 205.204 115.932C200.02 118.932 197.887 118.389 193.387 118.389C188.887 118.389 182.071 115.55 179.887 112.55Z" fill="#242424"/>
<ellipse cx="222" cy="103" rx="9" ry="5" fill="#FFE9E9"/>
<ellipse cx="165" cy="103" rx="9" ry="5" fill="#FFE9E9"/>
<g filter="url(#filter1_d_402_2360)">
<mask id="path-13-outside-1_402_2360" maskUnits="userSpaceOnUse" x="74.2573" y="9" width="222" height="83" fill="black">
<rect fill="white" x="74.2573" y="9" width="222" height="83"/>
<path fill-rule="evenodd" clip-rule="evenodd" d="M142.793 68.9516C140.375 70.2343 137.262 71.3142 134.179 70.3158C131.248 69.3667 129.478 67.1766 128.893 64.4802C128.388 62.1464 128.799 59.6278 129.398 57.4248C130.612 52.959 133.25 47.6096 135.563 42.9265C137.926 38.1425 139.907 34.1255 140.693 31.3278C139.909 31.6561 138.841 32.2441 137.467 33.2202C135.33 34.7379 132.86 36.8962 130.133 39.5521C124.68 44.863 118.572 51.7967 112.555 58.6871C112.133 59.1702 111.711 59.6533 111.29 60.1358C105.776 66.4551 100.366 72.6537 95.8616 77.1184C93.4567 79.5023 91.123 81.5825 89.0379 82.9298C88.005 83.5972 86.8127 84.2315 85.543 84.5493C84.2459 84.8739 82.4405 84.9595 80.7532 83.8784C76.6313 81.2375 76.9864 76.4578 77.6965 73.5143C78.4856 70.243 80.2452 66.6588 82.0462 63.5209C83.8842 60.3187 85.9336 57.2956 87.5074 55.0913C88.298 53.9841 88.9768 53.0718 89.4606 52.433C89.7027 52.1134 89.8964 51.8617 90.0314 51.6875C90.0989 51.6004 90.1517 51.5327 90.1887 51.4856L90.232 51.4305L90.2482 51.4099L90.2495 51.4082C90.25 51.4076 90.2504 51.4071 93.3875 53.8888L90.2504 51.4071C91.621 49.6745 94.1366 49.3811 95.8692 50.7517C97.6015 52.1221 97.8951 54.6372 96.5251 56.3698L96.5242 56.3708L96.5177 56.3792L96.4863 56.4191C96.4574 56.456 96.4129 56.513 96.3539 56.5891C96.236 56.7412 96.0606 56.9691 95.8379 57.2632C95.3921 57.8517 94.7586 58.7029 94.0183 59.7398C92.5303 61.824 90.6437 64.6126 88.9846 67.5032C87.2886 70.4582 85.9901 73.2482 85.4734 75.3903C85.4449 75.5085 85.4196 75.6204 85.3971 75.7261C86.6726 74.7935 88.2901 73.3593 90.2298 71.4367C94.5177 67.1865 99.7406 61.2025 105.338 54.79C105.733 54.337 106.13 53.8818 106.529 53.425C112.506 46.5806 118.827 39.3968 124.551 33.8213C127.413 31.034 130.218 28.5568 132.833 26.6985C135.339 24.9185 138.139 23.3604 140.926 23.037C143.287 22.7631 146.471 23.1464 148.142 26.1277C149.451 28.465 148.985 31.187 148.544 32.9336C147.617 36.5948 145.244 41.3945 143.056 45.822C142.948 46.0387 142.842 46.2545 142.736 46.4693C140.311 51.3791 138.085 55.9663 137.118 59.5238C136.654 61.228 136.62 62.2274 136.697 62.7042C136.895 62.7064 137.592 62.6546 139.045 61.8843C140.781 60.9635 142.932 59.366 145.461 57.1336C150.505 52.6806 156.356 46.3376 162.464 39.6809C162.638 39.4918 162.811 39.3024 162.985 39.1128C168.846 32.7248 174.912 26.1142 180.396 21.1187C183.221 18.5461 186.019 16.2814 188.668 14.6699C191.209 13.1242 194.168 11.83 197.162 12.0182C198.531 12.1043 199.943 12.4555 201.2 13.2786C202.498 14.1286 203.371 15.3131 203.877 16.616C204.799 18.9909 204.475 21.6716 203.977 23.8536C202.943 28.3736 200.299 34.102 197.823 39.3717C197.625 39.793 197.428 40.2121 197.232 40.6288C194.856 45.6789 192.65 50.3652 191.497 54.0799C190.993 55.7046 190.793 56.8393 190.763 57.5618C191.063 57.503 191.492 57.3804 192.079 57.1312C193.476 56.5377 195.231 55.4521 197.323 53.8753C201.505 50.7248 206.317 46.1734 211.338 41.3938L211.841 40.9147C216.602 36.3808 221.535 31.6833 225.919 28.2995C228.186 26.5498 230.487 25.0066 232.689 24.0174C234.786 23.0756 237.505 22.3112 240.194 23.2217C242.89 24.1345 244.44 26.2002 245.156 28.4431C245.813 30.5 245.823 32.809 245.63 34.9415C245.261 39.0168 243.969 43.9923 242.773 48.5996C242.714 48.8283 242.654 49.0562 242.596 49.2829C241.291 54.3142 240.141 58.8983 239.884 62.4741C239.756 64.2578 239.885 65.4291 240.112 66.1222C240.282 66.6383 240.423 66.6892 240.478 66.7091C240.483 66.7107 240.487 66.7121 240.49 66.7135C241.249 67.0396 242.578 67.0567 245.153 65.4323C247.665 63.8483 250.361 61.3306 253.33 58.4831C253.519 58.3022 253.709 58.1196 253.9 57.9356C256.544 55.3958 259.456 52.5991 262.228 50.7577C265.019 48.9037 269.444 46.8596 273.647 49.6939C277.174 52.0718 278.198 56.0586 278.487 59.3585C278.782 62.7337 278.402 66.5599 278.066 69.8549L278.046 70.054C277.696 73.4835 277.407 76.3205 277.567 78.5284C277.646 79.625 277.823 80.2652 277.979 80.599C278.018 80.6826 278.049 80.7322 278.067 80.7579C278.518 80.955 278.841 80.9471 279.426 80.5935C280.214 80.1177 281.15 79.1366 282.109 77.6923C283.031 76.3044 283.787 74.7766 284.322 73.556C284.585 72.9551 284.785 72.4497 284.918 72.1016C284.983 71.928 285.032 71.7948 285.062 71.7099C285.068 71.6938 285.073 71.6795 285.077 71.6669C285.085 71.6464 285.09 71.6306 285.094 71.62L285.098 71.6092C285.098 71.6086 285.098 71.608 285.098 71.6074C285.098 71.607 285.099 71.6065 285.099 71.606C285.099 71.6056 285.099 71.6051 285.099 71.6047C285.808 69.5145 288.076 68.3928 290.167 69.0989C292.26 69.8056 293.384 72.0753 292.677 74.1683L288.888 72.8888C292.677 74.1683 292.677 74.1694 292.677 74.1704L292.676 74.1729L292.674 74.1788L292.668 74.1947L292.652 74.2427C292.644 74.2644 292.635 74.2905 292.625 74.3207C292.616 74.3447 292.607 74.3712 292.596 74.4002C292.549 74.5315 292.483 74.7147 292.397 74.9413C292.225 75.3937 291.974 76.0243 291.65 76.7654C291.009 78.229 290.041 80.2096 288.773 82.119C287.542 83.972 285.82 86.0771 283.563 87.4408C281.118 88.9184 278.01 89.5115 274.74 88.0339C270.704 86.2099 269.8 82.0322 269.588 79.1055C269.376 76.1785 269.732 72.7096 270.049 69.6175C270.068 69.4249 270.088 69.2337 270.107 69.0442C270.459 65.5892 270.735 62.5404 270.518 60.0558C270.294 57.4959 269.636 56.6381 269.175 56.3269C269.175 56.3226 269.175 56.2752 268.9 56.3273C268.479 56.4073 267.75 56.694 266.654 57.4214C264.505 58.8495 262.079 61.1759 259.199 63.9388L258.867 64.2573C256.018 66.9892 252.739 70.1058 249.421 72.1988C246.167 74.2513 241.811 75.988 237.332 74.064C234.758 72.9582 233.255 70.8796 232.513 68.6206C231.815 66.4978 231.744 64.131 231.905 61.9009C232.224 57.4493 233.6 52.1034 234.852 47.275L234.927 46.9863C236.21 42.0379 237.355 37.6232 237.663 34.2199C237.821 32.4789 237.71 31.425 237.535 30.8763C237.529 30.8568 237.523 30.8387 237.517 30.822C237.29 30.8451 236.805 30.9386 235.967 31.3149C234.603 31.9278 232.877 33.0347 230.807 34.6325C226.759 37.757 222.087 42.2055 217.172 46.8847L216.854 47.1878C211.928 51.8778 206.761 56.7808 202.138 60.2646C199.828 62.0049 197.474 63.5314 195.206 64.4945C193.019 65.4233 190.278 66.0995 187.583 65.1702C186.178 64.6855 184.965 63.8119 184.103 62.5554C183.275 61.3498 182.927 60.0219 182.81 58.8249C182.586 56.5388 183.141 54.014 183.857 51.7083C185.186 47.4272 187.636 42.226 189.931 37.3546C190.15 36.8897 190.367 36.4278 190.583 35.97C193.172 30.4577 195.376 25.5754 196.178 22.0705C196.368 21.2368 196.451 20.5939 196.462 20.1208C196.463 20.0793 196.463 20.0402 196.463 20.0034C195.875 20.039 194.711 20.3578 192.826 21.5045C190.809 22.7315 188.444 24.6093 185.783 27.033C180.569 31.7821 174.713 38.1645 168.734 44.6802L168.358 45.0898C162.336 51.6528 156.18 58.3418 150.755 63.1312C148.049 65.5201 145.348 67.5963 142.793 68.9516ZM85.312 77.4117C85.3073 77.4163 85.2895 77.3916 85.2726 77.3242C85.3082 77.3735 85.3166 77.4072 85.312 77.4117Z"/>
</mask>
<path fill-rule="evenodd" clip-rule="evenodd" d="M142.793 68.9516C140.375 70.2343 137.262 71.3142 134.179 70.3158C131.248 69.3667 129.478 67.1766 128.893 64.4802C128.388 62.1464 128.799 59.6278 129.398 57.4248C130.612 52.959 133.25 47.6096 135.563 42.9265C137.926 38.1425 139.907 34.1255 140.693 31.3278C139.909 31.6561 138.841 32.2441 137.467 33.2202C135.33 34.7379 132.86 36.8962 130.133 39.5521C124.68 44.863 118.572 51.7967 112.555 58.6871C112.133 59.1702 111.711 59.6533 111.29 60.1358C105.776 66.4551 100.366 72.6537 95.8616 77.1184C93.4567 79.5023 91.123 81.5825 89.0379 82.9298C88.005 83.5972 86.8127 84.2315 85.543 84.5493C84.2459 84.8739 82.4405 84.9595 80.7532 83.8784C76.6313 81.2375 76.9864 76.4578 77.6965 73.5143C78.4856 70.243 80.2452 66.6588 82.0462 63.5209C83.8842 60.3187 85.9336 57.2956 87.5074 55.0913C88.298 53.9841 88.9768 53.0718 89.4606 52.433C89.7027 52.1134 89.8964 51.8617 90.0314 51.6875C90.0989 51.6004 90.1517 51.5327 90.1887 51.4856L90.232 51.4305L90.2482 51.4099L90.2495 51.4082C90.25 51.4076 90.2504 51.4071 93.3875 53.8888L90.2504 51.4071C91.621 49.6745 94.1366 49.3811 95.8692 50.7517C97.6015 52.1221 97.8951 54.6372 96.5251 56.3698L96.5242 56.3708L96.5177 56.3792L96.4863 56.4191C96.4574 56.456 96.4129 56.513 96.3539 56.5891C96.236 56.7412 96.0606 56.9691 95.8379 57.2632C95.3921 57.8517 94.7586 58.7029 94.0183 59.7398C92.5303 61.824 90.6437 64.6126 88.9846 67.5032C87.2886 70.4582 85.9901 73.2482 85.4734 75.3903C85.4449 75.5085 85.4196 75.6204 85.3971 75.7261C86.6726 74.7935 88.2901 73.3593 90.2298 71.4367C94.5177 67.1865 99.7406 61.2025 105.338 54.79C105.733 54.337 106.13 53.8818 106.529 53.425C112.506 46.5806 118.827 39.3968 124.551 33.8213C127.413 31.034 130.218 28.5568 132.833 26.6985C135.339 24.9185 138.139 23.3604 140.926 23.037C143.287 22.7631 146.471 23.1464 148.142 26.1277C149.451 28.465 148.985 31.187 148.544 32.9336C147.617 36.5948 145.244 41.3945 143.056 45.822C142.948 46.0387 142.842 46.2545 142.736 46.4693C140.311 51.3791 138.085 55.9663 137.118 59.5238C136.654 61.228 136.62 62.2274 136.697 62.7042C136.895 62.7064 137.592 62.6546 139.045 61.8843C140.781 60.9635 142.932 59.366 145.461 57.1336C150.505 52.6806 156.356 46.3376 162.464 39.6809C162.638 39.4918 162.811 39.3024 162.985 39.1128C168.846 32.7248 174.912 26.1142 180.396 21.1187C183.221 18.5461 186.019 16.2814 188.668 14.6699C191.209 13.1242 194.168 11.83 197.162 12.0182C198.531 12.1043 199.943 12.4555 201.2 13.2786C202.498 14.1286 203.371 15.3131 203.877 16.616C204.799 18.9909 204.475 21.6716 203.977 23.8536C202.943 28.3736 200.299 34.102 197.823 39.3717C197.625 39.793 197.428 40.2121 197.232 40.6288C194.856 45.6789 192.65 50.3652 191.497 54.0799C190.993 55.7046 190.793 56.8393 190.763 57.5618C191.063 57.503 191.492 57.3804 192.079 57.1312C193.476 56.5377 195.231 55.4521 197.323 53.8753C201.505 50.7248 206.317 46.1734 211.338 41.3938L211.841 40.9147C216.602 36.3808 221.535 31.6833 225.919 28.2995C228.186 26.5498 230.487 25.0066 232.689 24.0174C234.786 23.0756 237.505 22.3112 240.194 23.2217C242.89 24.1345 244.44 26.2002 245.156 28.4431C245.813 30.5 245.823 32.809 245.63 34.9415C245.261 39.0168 243.969 43.9923 242.773 48.5996C242.714 48.8283 242.654 49.0562 242.596 49.2829C241.291 54.3142 240.141 58.8983 239.884 62.4741C239.756 64.2578 239.885 65.4291 240.112 66.1222C240.282 66.6383 240.423 66.6892 240.478 66.7091C240.483 66.7107 240.487 66.7121 240.49 66.7135C241.249 67.0396 242.578 67.0567 245.153 65.4323C247.665 63.8483 250.361 61.3306 253.33 58.4831C253.519 58.3022 253.709 58.1196 253.9 57.9356C256.544 55.3958 259.456 52.5991 262.228 50.7577C265.019 48.9037 269.444 46.8596 273.647 49.6939C277.174 52.0718 278.198 56.0586 278.487 59.3585C278.782 62.7337 278.402 66.5599 278.066 69.8549L278.046 70.054C277.696 73.4835 277.407 76.3205 277.567 78.5284C277.646 79.625 277.823 80.2652 277.979 80.599C278.018 80.6826 278.049 80.7322 278.067 80.7579C278.518 80.955 278.841 80.9471 279.426 80.5935C280.214 80.1177 281.15 79.1366 282.109 77.6923C283.031 76.3044 283.787 74.7766 284.322 73.556C284.585 72.9551 284.785 72.4497 284.918 72.1016C284.983 71.928 285.032 71.7948 285.062 71.7099C285.068 71.6938 285.073 71.6795 285.077 71.6669C285.085 71.6464 285.09 71.6306 285.094 71.62L285.098 71.6092C285.098 71.6086 285.098 71.608 285.098 71.6074C285.098 71.607 285.099 71.6065 285.099 71.606C285.099 71.6056 285.099 71.6051 285.099 71.6047C285.808 69.5145 288.076 68.3928 290.167 69.0989C292.26 69.8056 293.384 72.0753 292.677 74.1683L288.888 72.8888C292.677 74.1683 292.677 74.1694 292.677 74.1704L292.676 74.1729L292.674 74.1788L292.668 74.1947L292.652 74.2427C292.644 74.2644 292.635 74.2905 292.625 74.3207C292.616 74.3447 292.607 74.3712 292.596 74.4002C292.549 74.5315 292.483 74.7147 292.397 74.9413C292.225 75.3937 291.974 76.0243 291.65 76.7654C291.009 78.229 290.041 80.2096 288.773 82.119C287.542 83.972 285.82 86.0771 283.563 87.4408C281.118 88.9184 278.01 89.5115 274.74 88.0339C270.704 86.2099 269.8 82.0322 269.588 79.1055C269.376 76.1785 269.732 72.7096 270.049 69.6175C270.068 69.4249 270.088 69.2337 270.107 69.0442C270.459 65.5892 270.735 62.5404 270.518 60.0558C270.294 57.4959 269.636 56.6381 269.175 56.3269C269.175 56.3226 269.175 56.2752 268.9 56.3273C268.479 56.4073 267.75 56.694 266.654 57.4214C264.505 58.8495 262.079 61.1759 259.199 63.9388L258.867 64.2573C256.018 66.9892 252.739 70.1058 249.421 72.1988C246.167 74.2513 241.811 75.988 237.332 74.064C234.758 72.9582 233.255 70.8796 232.513 68.6206C231.815 66.4978 231.744 64.131 231.905 61.9009C232.224 57.4493 233.6 52.1034 234.852 47.275L234.927 46.9863C236.21 42.0379 237.355 37.6232 237.663 34.2199C237.821 32.4789 237.71 31.425 237.535 30.8763C237.529 30.8568 237.523 30.8387 237.517 30.822C237.29 30.8451 236.805 30.9386 235.967 31.3149C234.603 31.9278 232.877 33.0347 230.807 34.6325C226.759 37.757 222.087 42.2055 217.172 46.8847L216.854 47.1878C211.928 51.8778 206.761 56.7808 202.138 60.2646C199.828 62.0049 197.474 63.5314 195.206 64.4945C193.019 65.4233 190.278 66.0995 187.583 65.1702C186.178 64.6855 184.965 63.8119 184.103 62.5554C183.275 61.3498 182.927 60.0219 182.81 58.8249C182.586 56.5388 183.141 54.014 183.857 51.7083C185.186 47.4272 187.636 42.226 189.931 37.3546C190.15 36.8897 190.367 36.4278 190.583 35.97C193.172 30.4577 195.376 25.5754 196.178 22.0705C196.368 21.2368 196.451 20.5939 196.462 20.1208C196.463 20.0793 196.463 20.0402 196.463 20.0034C195.875 20.039 194.711 20.3578 192.826 21.5045C190.809 22.7315 188.444 24.6093 185.783 27.033C180.569 31.7821 174.713 38.1645 168.734 44.6802L168.358 45.0898C162.336 51.6528 156.18 58.3418 150.755 63.1312C148.049 65.5201 145.348 67.5963 142.793 68.9516ZM85.312 77.4117C85.3073 77.4163 85.2895 77.3916 85.2726 77.3242C85.3082 77.3735 85.3166 77.4072 85.312 77.4117Z" fill="url(#paint0_linear_402_2360)"/>
<path d="M197.916 21.1963C198.552 20.666 198.638 19.7201 198.108 19.0837C197.577 18.4473 196.632 18.3613 195.995 18.8917L197.916 21.1963ZM197.454 18.6292C196.673 18.3523 195.815 18.7609 195.539 19.5417C195.262 20.3225 195.67 21.1799 196.451 21.4567L197.454 18.6292ZM143.274 32.1228C143.918 31.6023 144.019 30.6579 143.498 30.0134C142.978 29.3689 142.033 29.2685 141.389 29.789L143.274 32.1228ZM142.49 29.4645C141.667 29.3733 140.925 29.967 140.834 30.7904C140.743 31.6138 141.337 32.3551 142.16 32.4463L142.49 29.4645ZM97.7612 57.2196H97.7612C97.7612 57.2196 97.7612 57.2196 97.7612 57.2195C97.7612 57.2195 97.7612 57.2195 97.7612 57.2195C96.5251 57.8698 95.289 55.52 95.289 55.52C95.289 55.52 95.289 55.52 95.289 55.52H95.289C95.289 55.52 95.289 55.52 95.289 55.52H95.289V55.52C95.289 55.52 95.289 55.52 95.289 55.52C95.289 55.52 96.5251 57.8698 97.7612 57.2196H97.7612C97.7612 57.2196 97.7612 57.2196 97.7612 57.2196L95.289 55.52H95.289C95.289 55.52 95.289 55.52 95.289 55.52C95.289 55.52 95.289 55.52 95.289 55.52C96.5251 54.8698 97.7612 57.2196 97.7612 57.2196C97.7612 57.2196 97.7612 57.2196 97.7612 57.2196H97.7612C97.7612 57.2196 97.7612 57.2196 97.7612 57.2196H97.7612V57.2195C97.7612 57.2195 97.7612 57.2195 97.7612 57.2195C97.7612 57.2195 96.5251 54.8698 95.289 55.52H95.289C95.289 55.52 95.289 55.52 95.289 55.52L97.7612 57.2196ZM195.995 18.8917C196.185 18.7334 196.371 18.6576 196.48 18.6212C196.596 18.5827 196.694 18.5656 196.756 18.5573C196.877 18.541 196.974 18.5435 197.017 18.5453C197.109 18.549 197.18 18.5607 197.202 18.5644C197.258 18.5738 197.302 18.5845 197.313 18.5873C197.345 18.5951 197.37 18.6024 197.377 18.6044C197.396 18.6101 197.411 18.6149 197.417 18.6169C197.433 18.6219 197.445 18.6262 197.454 18.6292L196.451 21.4567C196.462 21.4604 196.476 21.4653 196.492 21.4706C196.499 21.4727 196.514 21.4777 196.534 21.4835C196.541 21.4856 196.566 21.4928 196.598 21.5007C196.609 21.5035 196.652 21.5142 196.709 21.5236C196.731 21.5273 196.802 21.539 196.894 21.5427C196.937 21.5445 197.034 21.547 197.155 21.5307C197.216 21.5225 197.576 21.4799 197.916 21.1963L195.995 18.8917ZM141.389 29.789C141.517 29.6853 141.636 29.6243 141.708 29.5914C141.785 29.5564 141.851 29.5341 141.896 29.5204C141.984 29.4938 142.056 29.481 142.092 29.4751C142.167 29.4631 142.226 29.4595 142.248 29.4582C142.298 29.4554 142.338 29.4559 142.35 29.456C142.381 29.4564 142.405 29.4577 142.412 29.4581C142.432 29.4592 142.447 29.4604 142.454 29.4609C142.469 29.4622 142.482 29.4635 142.49 29.4645L142.16 32.4463C142.172 32.4476 142.188 32.4492 142.206 32.4507C142.213 32.4513 142.229 32.4526 142.25 32.4537C142.257 32.4541 142.282 32.4554 142.313 32.4558C142.325 32.4559 142.364 32.4564 142.415 32.4536C142.437 32.4523 142.496 32.4487 142.571 32.4367C142.607 32.4308 142.679 32.418 142.767 32.3914C142.82 32.3751 143.045 32.3078 143.274 32.1228L141.389 29.789ZM134.179 70.3158L133.255 73.1699L134.179 70.3158ZM142.793 68.9516L141.388 66.3014V66.3014L142.793 68.9516ZM128.893 64.4802L125.962 65.1155L128.893 64.4802ZM129.398 57.4248L132.293 58.2119V58.2119L129.398 57.4248ZM135.563 42.9265L138.253 44.255V44.255L135.563 42.9265ZM140.693 31.3278L143.581 32.1389C143.892 31.0309 143.542 29.8426 142.68 29.0803C141.818 28.318 140.595 28.1161 139.534 28.5606L140.693 31.3278ZM137.467 33.2202L139.204 35.6659L137.467 33.2202ZM130.133 39.5521L132.226 41.7012L130.133 39.5521ZM112.555 58.6871L110.295 56.7138L112.555 58.6871ZM111.29 60.1358L109.03 58.1632L111.29 60.1358ZM95.8616 77.1184L93.7497 74.9878H93.7497L95.8616 77.1184ZM89.0379 82.9298L87.4098 80.41L87.4098 80.41L89.0379 82.9298ZM85.543 84.5493L84.8146 81.6391H84.8145L85.543 84.5493ZM80.7532 83.8784L82.3716 81.3524L82.3716 81.3524L80.7532 83.8784ZM77.6965 73.5143L74.7801 72.8108V72.8108L77.6965 73.5143ZM82.0462 63.5209L84.6481 65.0143H84.6481L82.0462 63.5209ZM87.5074 55.0913L89.949 56.8345L89.949 56.8345L87.5074 55.0913ZM89.4606 52.433L87.0691 50.6217H87.0691L89.4606 52.433ZM90.0314 51.6875L92.4023 53.5256L92.4024 53.5256L90.0314 51.6875ZM90.1887 51.4856L87.8291 49.6329L87.827 49.6356L90.1887 51.4856ZM90.232 51.4305L87.8762 49.573L87.8724 49.5778L90.232 51.4305ZM90.2482 51.4099L87.8956 49.5483L87.8924 49.5524L90.2482 51.4099ZM90.2495 51.4082L92.6021 53.2698L92.6054 53.2655L90.2495 51.4082ZM91.5262 56.2416C92.8256 57.2695 94.7123 57.0494 95.7403 55.75C96.7682 54.4506 96.5482 52.5639 95.2487 51.536L91.5262 56.2416ZM90.2504 51.4071L87.8976 49.5458C86.8697 50.8452 87.0897 52.7319 88.3891 53.7599L90.2504 51.4071ZM95.8692 50.7517L94.0079 53.1045L95.8692 50.7517ZM98.8818 58.2261C99.907 56.9246 99.683 55.0384 98.3815 54.0131C97.0799 52.9878 95.1937 53.2118 94.1684 54.5134L98.8818 58.2261ZM96.5242 56.3708L98.8804 58.2279L98.8809 58.2272L96.5242 56.3708ZM96.5177 56.3792L94.1615 54.5221L94.158 54.5267L96.5177 56.3792ZM96.4863 56.4191L94.1266 54.5666L94.1247 54.569L96.4863 56.4191ZM96.3539 56.5891L93.983 54.751L93.983 54.751L96.3539 56.5891ZM95.8379 57.2632L98.2294 59.0745L98.2294 59.0745L95.8379 57.2632ZM94.0183 59.7398L91.5767 57.9966L91.5767 57.9966L94.0183 59.7398ZM88.9846 67.5032L86.3827 66.0098L86.3827 66.0098L88.9846 67.5032ZM85.4734 75.3903L82.5571 74.6868L82.5571 74.6868L85.4734 75.3903ZM85.3971 75.7261L82.4624 75.1036C82.2044 76.32 82.7235 77.5695 83.7675 78.2449C84.8116 78.9204 86.1641 78.8818 87.1678 78.1478L85.3971 75.7261ZM90.2298 71.4367L88.1179 69.306H88.1179L90.2298 71.4367ZM105.338 54.79L103.077 52.8173L103.077 52.8173L105.338 54.79ZM106.529 53.425L108.789 55.3983L106.529 53.425ZM124.551 33.8213L126.644 35.9703L124.551 33.8213ZM132.833 26.6985L131.096 24.2528L132.833 26.6985ZM140.926 23.037L141.272 26.017H141.272L140.926 23.037ZM148.142 26.1277L150.759 24.6612L148.142 26.1277ZM148.544 32.9336L151.452 33.6692V33.6692L148.544 32.9336ZM143.056 45.822L145.745 47.1516L145.745 47.1516L143.056 45.822ZM142.736 46.4693L145.425 47.7978V47.7978L142.736 46.4693ZM137.118 59.5238L140.013 60.3109V60.3109L137.118 59.5238ZM136.697 62.7042L133.735 63.1831C133.968 64.6241 135.205 65.6883 136.664 65.7041L136.697 62.7042ZM139.045 61.8843L140.45 64.5345H140.45L139.045 61.8843ZM145.461 57.1336L143.475 54.8845L145.461 57.1336ZM162.464 39.6809L164.674 41.7092L164.674 41.7092L162.464 39.6809ZM162.985 39.1128L165.196 41.141L165.196 41.141L162.985 39.1128ZM180.396 21.1187L182.416 23.3365L180.396 21.1187ZM188.668 14.6699L190.227 17.2328L188.668 14.6699ZM197.162 12.0182L197.35 9.02416L197.162 12.0182ZM201.2 13.2786L202.844 10.7688L202.844 10.7688L201.2 13.2786ZM203.877 16.616L201.081 17.7019L201.081 17.7019L203.877 16.616ZM203.977 23.8536L201.052 23.1849V23.1849L203.977 23.8536ZM197.823 39.3717L200.539 40.6474V40.6474L197.823 39.3717ZM197.232 40.6288L199.947 41.9062L199.947 41.9062L197.232 40.6288ZM191.497 54.0799L188.632 53.1905V53.1905L191.497 54.0799ZM190.763 57.5618L187.765 57.4379C187.727 58.3556 188.112 59.24 188.809 59.8382C189.506 60.4364 190.438 60.6824 191.34 60.5058L190.763 57.5618ZM192.079 57.1312L193.252 59.8924L193.252 59.8924L192.079 57.1312ZM197.323 53.8753L195.518 51.4793L197.323 53.8753ZM211.338 41.3938L213.406 43.5665L213.406 43.5664L211.338 41.3938ZM211.841 40.9147L213.91 43.0873L213.91 43.0872L211.841 40.9147ZM225.919 28.2995L224.086 25.9247V25.9247L225.919 28.2995ZM232.689 24.0174L233.918 26.754L232.689 24.0174ZM240.194 23.2217L239.232 26.0632L240.194 23.2217ZM245.156 28.4431L242.298 29.3555V29.3555L245.156 28.4431ZM245.63 34.9415L242.643 34.6709V34.6709L245.63 34.9415ZM242.773 48.5996L239.869 47.8456L239.869 47.8457L242.773 48.5996ZM242.596 49.2829L245.5 50.0359L245.5 50.0358L242.596 49.2829ZM239.884 62.4741L242.876 62.689V62.689L239.884 62.4741ZM240.112 66.1222L242.962 65.1853V65.1853L240.112 66.1222ZM240.478 66.7091L239.46 69.5311L239.461 69.5312L240.478 66.7091ZM240.49 66.7135L241.674 63.957L241.673 63.9565L240.49 66.7135ZM245.153 65.4323L246.754 67.9697L245.153 65.4323ZM253.33 58.4831L251.254 56.3178L251.254 56.3178L253.33 58.4831ZM253.9 57.9356L255.979 60.0991V60.0991L253.9 57.9356ZM262.228 50.7577L263.888 53.2566V53.2566L262.228 50.7577ZM273.647 49.6939L271.97 52.1813V52.1813L273.647 49.6939ZM278.487 59.3585L281.476 59.0971V59.097L278.487 59.3585ZM278.066 69.8549L281.051 70.159L281.051 70.1589L278.066 69.8549ZM278.046 70.054L275.061 69.7499V69.7499L278.046 70.054ZM277.567 78.5284L280.559 78.312V78.3119L277.567 78.5284ZM277.979 80.599L275.26 81.8681V81.8681L277.979 80.599ZM278.067 80.7579L275.61 82.4792C275.926 82.9307 276.361 83.2863 276.866 83.507L278.067 80.7579ZM279.426 80.5935L277.875 78.0258L277.875 78.0258L279.426 80.5935ZM282.109 77.6923L284.608 79.3523L284.608 79.3523L282.109 77.6923ZM284.322 73.556L281.574 72.3525L281.574 72.3525L284.322 73.556ZM284.918 72.1016L287.722 73.1666L287.722 73.1664L284.918 72.1016ZM285.062 71.7099L282.237 70.701V70.701L285.062 71.7099ZM285.077 71.6669L282.249 70.6677L282.249 70.668L285.077 71.6669ZM285.094 71.62L282.261 70.633L282.26 70.637L285.094 71.62ZM285.098 71.6092L287.931 72.5961C287.934 72.5871 287.937 72.578 287.94 72.5689L285.098 71.6092ZM285.098 71.6074L282.271 70.6042C282.266 70.6187 282.261 70.6331 282.256 70.6477L285.098 71.6074ZM285.099 71.606L287.926 72.6092C287.928 72.6033 287.93 72.5975 287.932 72.5916L285.099 71.606ZM285.099 71.6047L287.933 72.5902C287.935 72.5827 287.938 72.5752 287.94 72.5677L285.099 71.6047ZM290.167 69.0989L291.127 66.2566L291.127 66.2566L290.167 69.0989ZM292.677 74.1683L291.718 77.0107C293.287 77.5407 294.99 76.6978 295.52 75.128L292.677 74.1683ZM289.847 70.0464C288.277 69.5164 286.575 70.3593 286.045 71.9291C285.515 73.4989 286.358 75.2011 287.928 75.7311L289.847 70.0464ZM292.677 74.1704L295.514 75.1443L295.517 75.1372L292.677 74.1704ZM292.676 74.1729L289.838 73.199C289.837 73.2037 289.835 73.2085 289.833 73.2132L292.676 74.1729ZM292.674 74.1788L295.513 75.1489L295.516 75.1385L292.674 74.1788ZM292.668 74.1947L295.505 75.1726L295.507 75.1648L292.668 74.1947ZM292.652 74.2427L295.486 75.2268L295.488 75.2205L292.652 74.2427ZM292.625 74.3207L295.454 75.3188L295.454 75.3177L292.625 74.3207ZM292.596 74.4002L295.422 75.4089L295.422 75.4088L292.596 74.4002ZM292.397 74.9413L289.592 73.8763L289.592 73.8764L292.397 74.9413ZM291.65 76.7654L294.398 77.969L294.398 77.9689L291.65 76.7654ZM288.773 82.119L286.274 80.459L286.274 80.459L288.773 82.119ZM283.563 87.4408L285.115 90.0085H285.115L283.563 87.4408ZM274.74 88.0339L273.505 90.7677L274.74 88.0339ZM269.588 79.1055L272.58 78.8891V78.8891L269.588 79.1055ZM270.049 69.6175L273.033 69.9235V69.9234L270.049 69.6175ZM270.107 69.0442L273.092 69.3483V69.3482L270.107 69.0442ZM270.518 60.0558L273.506 59.7943V59.7943L270.518 60.0558ZM269.175 56.3269H266.175C266.175 57.3243 266.671 58.2566 267.498 58.8142L269.175 56.3269ZM268.9 56.3273L268.341 53.3799L268.341 53.3799L268.9 56.3273ZM266.654 57.4214L264.994 54.9225V54.9225L266.654 57.4214ZM259.199 63.9388L261.276 66.1039L261.276 66.1038L259.199 63.9388ZM258.867 64.2573L260.943 66.4226L260.944 66.4224L258.867 64.2573ZM249.421 72.1988L247.821 69.6613L249.421 72.1988ZM237.332 74.064L236.148 76.8205L237.332 74.064ZM232.513 68.6206L229.663 69.5575V69.5575L232.513 68.6206ZM231.905 61.9009L234.897 62.1159V62.1159L231.905 61.9009ZM234.852 47.275L231.948 46.5218L231.948 46.522L234.852 47.275ZM234.927 46.9863L237.83 47.7394L237.83 47.7394L234.927 46.9863ZM237.663 34.2199L240.651 34.4905L237.663 34.2199ZM237.535 30.8763L234.677 31.7879L234.677 31.7888L237.535 30.8763ZM237.517 30.822L240.348 29.8281C239.888 28.5201 238.593 27.6971 237.214 27.8374L237.517 30.822ZM235.967 31.3149L234.738 28.5783L234.738 28.5783L235.967 31.3149ZM230.807 34.6325L232.64 37.0074V37.0074L230.807 34.6325ZM217.172 46.8847L219.241 49.0574L219.241 49.0574L217.172 46.8847ZM216.854 47.1878L218.923 49.3606L218.923 49.3605L216.854 47.1878ZM202.138 60.2646L200.332 57.8686L202.138 60.2646ZM195.206 64.4945L196.379 67.2558L195.206 64.4945ZM187.583 65.1702L186.605 68.0062V68.0062L187.583 65.1702ZM184.103 62.5554L181.629 64.253L181.629 64.253L184.103 62.5554ZM182.81 58.8249L179.824 59.1171L179.824 59.1171L182.81 58.8249ZM183.857 51.7083L180.992 50.8189V50.8189L183.857 51.7083ZM189.931 37.3546L192.645 38.6331L192.645 38.6331L189.931 37.3546ZM190.583 35.97L193.298 37.2457L190.583 35.97ZM196.178 22.0705L193.253 21.4018L193.253 21.4018L196.178 22.0705ZM196.462 20.1208L193.463 20.0507V20.0509L196.462 20.1208ZM196.463 20.0034L199.463 19.9966C199.461 19.1707 199.119 18.382 198.517 17.8166C197.915 17.2512 197.106 16.959 196.282 17.0089L196.463 20.0034ZM192.826 21.5045L191.267 18.9415V18.9415L192.826 21.5045ZM185.783 27.033L183.763 24.8151V24.8151L185.783 27.033ZM168.734 44.6802L170.945 46.7085L170.945 46.7085L168.734 44.6802ZM168.358 45.0898L170.569 47.1182L170.569 47.1181L168.358 45.0898ZM150.755 63.1312L152.74 65.3803L150.755 63.1312ZM85.2726 77.3242L87.705 75.5682C86.8629 74.4018 85.3114 73.9974 84.0071 74.6042C82.7028 75.2111 82.0128 76.6584 82.3627 78.0537L85.2726 77.3242ZM133.255 73.1699C137.529 74.5542 141.58 72.9913 144.199 71.6018L141.388 66.3014C139.171 67.4772 136.995 68.0743 135.103 67.4617L133.255 73.1699ZM125.962 65.1155C126.758 68.7909 129.245 71.8714 133.255 73.1699L135.103 67.4617C133.251 66.8619 132.198 65.5624 131.825 63.8449L125.962 65.1155ZM126.503 56.6376C125.863 58.9907 125.302 62.0723 125.962 65.1155L131.825 63.8449C131.473 62.2204 131.735 60.2649 132.293 58.2119L126.503 56.6376ZM132.873 41.598C130.601 46.1985 127.81 51.8321 126.503 56.6376L132.293 58.2119C133.415 54.086 135.899 49.0207 138.253 44.255L132.873 41.598ZM137.804 30.5167C137.113 32.9779 135.298 36.6879 132.873 41.598L138.253 44.255C140.553 39.5971 142.701 35.2731 143.581 32.1389L137.804 30.5167ZM139.204 35.6659C140.457 34.7761 141.329 34.3138 141.851 34.095L139.534 28.5606C138.488 28.9984 137.225 29.7121 135.729 30.7746L139.204 35.6659ZM132.226 41.7012C134.902 39.0944 137.248 37.0558 139.204 35.6659L135.729 30.7746C133.413 32.4201 130.817 34.698 128.04 37.4031L132.226 41.7012ZM114.815 60.6604C120.847 53.7525 126.875 46.9128 132.226 41.7012L128.04 37.4031C122.485 42.8132 116.297 49.8408 110.295 56.7138L114.815 60.6604ZM113.551 62.1083C113.972 61.6259 114.393 61.1431 114.815 60.6604L110.295 56.7138C109.873 57.1973 109.451 57.6808 109.03 58.1632L113.551 62.1083ZM97.9736 79.2491C102.572 74.691 108.061 68.3982 113.551 62.1083L109.03 58.1632C103.49 64.5119 98.1598 70.6164 93.7497 74.9878L97.9736 79.2491ZM90.666 85.4496C93.0214 83.9277 95.5341 81.6672 97.9736 79.2491L93.7497 74.9878C91.3792 77.3374 89.2246 79.2374 87.4098 80.41L90.666 85.4496ZM86.2714 87.4595C87.995 87.0281 89.5039 86.2005 90.666 85.4496L87.4098 80.41C86.506 80.994 85.6305 81.4348 84.8146 81.6391L86.2714 87.4595ZM79.1348 86.4044C81.7652 88.0898 84.5106 87.9002 86.2714 87.4595L84.8145 81.6391C83.9812 81.8476 83.1157 81.8292 82.3716 81.3524L79.1348 86.4044ZM74.7801 72.8108C74.0394 75.8816 73.2143 82.6112 79.1348 86.4044L82.3716 81.3524C80.0483 79.8639 79.9335 77.0339 80.6128 74.2178L74.7801 72.8108ZM79.4443 62.0275C77.6035 65.2349 75.6713 69.1165 74.7801 72.8108L80.6128 74.2178C81.2999 71.3694 82.887 68.0827 84.6481 65.0143L79.4443 62.0275ZM85.0658 53.3481C83.4599 55.5975 81.3493 58.7085 79.4443 62.0275L84.6481 65.0143C86.419 61.9288 88.4074 58.9937 89.949 56.8345L85.0658 53.3481ZM87.0691 50.6217C86.571 51.2793 85.8752 52.2145 85.0658 53.3481L89.949 56.8345C90.7207 55.7536 91.3825 54.8643 91.8521 54.2443L87.0691 50.6217ZM87.6604 49.8495C87.519 50.0318 87.3185 50.2925 87.0691 50.6217L91.8521 54.2443C92.0869 53.9343 92.2737 53.6915 92.4023 53.5256L87.6604 49.8495ZM87.827 49.6356C87.7871 49.6865 87.7311 49.7582 87.6604 49.8495L92.4024 53.5256C92.4666 53.4427 92.5164 53.379 92.5503 53.3356L87.827 49.6356ZM87.8724 49.5778L87.8291 49.6329L92.5482 53.3383L92.5915 53.2831L87.8724 49.5778ZM87.8969 49.5467L87.8956 49.5483L92.6008 53.2715L92.6021 53.2698L87.8969 49.5467ZM95.2487 51.536C93.6803 50.2952 92.8953 49.6744 92.5023 49.3638C92.3065 49.2091 92.2057 49.1296 92.1535 49.0886C92.1305 49.0704 92.1074 49.0523 92.0885 49.0377C92.0829 49.0334 92.0734 49.0261 92.0618 49.0173C92.0538 49.0113 92.0271 48.9911 91.9926 48.9665C91.9756 48.9544 91.9408 48.9298 91.8958 48.9002C91.8648 48.8799 91.7574 48.8095 91.6111 48.735C91.5961 48.7274 91.0174 48.4001 90.2183 48.4084C89.6738 48.4141 89.0809 48.5702 88.5474 48.9378C88.3134 49.0991 88.1467 49.2631 88.0435 49.3751C88.0048 49.4179 87.9483 49.4836 87.9298 49.5058C87.9116 49.5283 87.8936 49.5509 87.8936 49.5509L92.6054 53.2655C92.6054 53.2655 92.5874 53.2882 92.5692 53.3106C92.5507 53.3329 92.4942 53.3985 92.4555 53.4413C92.3523 53.5533 92.1856 53.7174 91.9516 53.8786C91.4181 54.2462 90.8253 54.4024 90.2808 54.4081C89.8165 54.4129 89.4604 54.3081 89.2904 54.2507C89.1038 54.1878 88.9625 54.1194 88.8881 54.0815C88.7419 54.0071 88.6347 53.9367 88.604 53.9166C88.5592 53.8872 88.5247 53.8628 88.5081 53.8509C88.4744 53.8269 88.4488 53.8076 88.4427 53.8029C88.4328 53.7955 88.4256 53.7899 88.4231 53.788C88.4165 53.7829 88.4181 53.7841 88.4442 53.8046C88.4902 53.8408 88.5857 53.9161 88.7823 54.0714C89.1738 54.3809 89.9576 55.0006 91.5262 56.2416L95.2487 51.536ZM88.3891 53.7599L91.5262 56.2416L95.2487 51.536L92.1117 49.0543L88.3891 53.7599ZM97.7304 48.3989C94.6985 46.0003 90.2961 46.5138 87.8976 49.5458L92.6032 53.2683C92.9459 52.8352 93.5748 52.7618 94.0079 53.1045L97.7304 48.3989ZM98.8783 58.2305C101.276 55.1986 100.762 50.7971 97.7304 48.3989L94.0079 53.1045C94.441 53.4471 94.5144 54.0759 94.1719 54.509L98.8783 58.2305ZM98.8809 58.2272L98.8818 58.2261L94.1684 54.5134L94.1676 54.5145L98.8809 58.2272ZM98.8738 58.2362L98.8804 58.2279L94.1681 54.5138L94.1615 54.5221L98.8738 58.2362ZM98.846 58.2716L98.8774 58.2317L94.158 54.5267L94.1266 54.5666L98.846 58.2716ZM98.7249 58.4271C98.7807 58.3552 98.8221 58.3022 98.8479 58.2692L94.1247 54.569C94.0928 54.6097 94.0451 54.6708 93.983 54.751L98.7249 58.4271ZM98.2294 59.0745C98.4448 58.79 98.6134 58.571 98.7249 58.4271L93.983 54.751C93.8587 54.9114 93.6764 55.1482 93.4464 55.4519L98.2294 59.0745ZM96.4599 61.483C97.1814 60.4724 97.7978 59.6442 98.2294 59.0745L93.4464 55.4519C92.9864 56.0593 92.3359 56.9333 91.5767 57.9966L96.4599 61.483ZM91.5865 68.9966C93.1786 66.2228 95.004 63.5221 96.4599 61.483L91.5767 57.9966C90.0566 60.1258 88.1089 63.0023 86.3827 66.0098L91.5865 68.9966ZM88.3898 76.0938C88.8042 74.3758 89.9292 71.8841 91.5865 68.9966L86.3827 66.0098C84.6479 69.0324 83.1761 72.1206 82.5571 74.6868L88.3898 76.0938ZM88.3318 76.3487C88.3483 76.2711 88.3675 76.1863 88.3898 76.0938L82.5571 74.6868C82.5223 74.8308 82.4909 74.9697 82.4624 75.1036L88.3318 76.3487ZM88.1179 69.306C86.2212 71.1859 84.7259 72.5006 83.6265 73.3044L87.1678 78.1478C88.6194 77.0865 90.3589 75.5327 92.3417 73.5673L88.1179 69.306ZM103.077 52.8173C97.4532 59.2609 92.3112 65.1496 88.1179 69.306L92.3417 73.5673C96.7241 69.2235 102.028 63.1441 107.598 56.7627L103.077 52.8173ZM104.269 51.4517C103.87 51.9089 103.473 52.3643 103.077 52.8173L107.598 56.7627C107.993 56.3097 108.39 55.8548 108.789 55.3983L104.269 51.4517ZM122.458 31.6722C116.632 37.3469 110.231 44.6244 104.269 51.4517L108.789 55.3983C114.781 48.5368 121.022 41.4467 126.644 35.9703L122.458 31.6722ZM131.096 24.2528C128.301 26.2388 125.37 28.8356 122.458 31.6722L126.644 35.9703C129.455 33.2324 132.135 30.8748 134.571 29.1441L131.096 24.2528ZM140.581 20.057C137.014 20.4708 133.701 22.4022 131.096 24.2528L134.571 29.1441C136.977 27.4348 139.263 26.2501 141.272 26.017L140.581 20.057ZM150.759 24.6612C148.185 20.0683 143.351 19.7356 140.581 20.057L141.272 26.017C143.224 25.7906 144.757 26.2245 145.524 27.5942L150.759 24.6612ZM151.452 33.6692C151.911 31.8534 152.683 28.0959 150.759 24.6612L145.524 27.5942C146.219 28.834 146.059 30.5205 145.635 32.198L151.452 33.6692ZM145.745 47.1516C147.877 42.839 150.43 37.7109 151.452 33.6692L145.635 32.1979C144.805 35.4787 142.612 39.9501 140.366 44.4924L145.745 47.1516ZM145.425 47.7978C145.531 47.5837 145.638 47.3684 145.745 47.1516L140.366 44.4924C140.259 44.709 140.152 44.9253 140.046 45.1407L145.425 47.7978ZM140.013 60.3109C140.887 57.0948 142.957 52.7954 145.425 47.7978L140.046 45.1407C137.664 49.9627 135.283 54.8378 134.223 58.7366L140.013 60.3109ZM139.658 62.2254C139.677 62.34 139.648 62.2592 139.687 61.8996C139.724 61.5622 139.814 61.0428 140.013 60.3109L134.223 58.7366C133.715 60.6034 133.558 62.0873 133.735 63.1831L139.658 62.2254ZM137.639 59.2341C136.471 59.8538 136.273 59.6995 136.729 59.7044L136.664 65.7041C137.517 65.7133 138.714 65.4555 140.45 64.5345L137.639 59.2341ZM143.475 54.8845C141.012 57.0586 139.067 58.4763 137.639 59.2341L140.45 64.5345C142.494 63.4506 144.851 61.6733 147.446 59.3827L143.475 54.8845ZM160.254 37.6525C154.113 44.3447 148.377 50.5578 143.475 54.8845L147.446 59.3827C152.633 54.8035 158.599 48.3304 164.674 41.7092L160.254 37.6525ZM160.775 37.0846C160.601 37.2742 160.427 37.4635 160.254 37.6526L164.674 41.7092C164.848 41.52 165.022 41.3305 165.196 41.141L160.775 37.0846ZM178.376 18.9008C172.772 24.0056 166.609 30.7261 160.775 37.0846L165.196 41.141C171.084 34.7234 177.052 28.2228 182.416 23.3365L178.376 18.9008ZM187.109 12.1069C184.223 13.8625 181.262 16.2722 178.376 18.9008L182.416 23.3365C185.179 20.82 187.815 18.7003 190.227 17.2328L187.109 12.1069ZM197.35 9.02416C193.421 8.7772 189.807 10.4657 187.109 12.1069L190.227 17.2328C192.611 15.7827 194.914 14.8829 196.974 15.0123L197.35 9.02416ZM202.844 10.7688C201.042 9.58932 199.09 9.13351 197.35 9.02416L196.974 15.0123C197.973 15.0751 198.844 15.3217 199.557 15.7884L202.844 10.7688ZM206.674 15.5302C205.965 13.7046 204.717 11.9956 202.844 10.7688L199.557 15.7884C200.279 16.2616 200.778 16.9216 201.081 17.7019L206.674 15.5302ZM206.901 24.5222C207.431 22.205 207.935 18.7777 206.674 15.5301L201.081 17.7019C201.664 19.204 201.52 21.1382 201.052 23.1849L206.901 24.5222ZM200.539 40.6474C202.973 35.4659 205.781 29.4221 206.901 24.5222L201.052 23.1849C200.105 27.3251 197.625 32.7381 195.108 38.0961L200.539 40.6474ZM199.947 41.9062C200.143 41.4897 200.34 41.0697 200.539 40.6474L195.108 38.0961C194.911 38.5163 194.714 38.9346 194.518 39.3514L199.947 41.9062ZM194.362 54.9692C195.439 51.4998 197.535 47.0303 199.947 41.9062L194.518 39.3514C192.176 44.3275 189.861 49.2306 188.632 53.1905L194.362 54.9692ZM193.76 57.6857C193.775 57.3257 193.897 56.4679 194.362 54.9692L188.632 53.1905C188.089 54.9413 187.81 56.3529 187.765 57.4379L193.76 57.6857ZM190.906 54.3699C190.474 54.5532 190.246 54.606 190.186 54.6178L191.34 60.5058C191.879 60.4 192.509 60.2076 193.252 59.8924L190.906 54.3699ZM195.518 51.4793C193.506 52.9953 191.976 53.9153 190.906 54.3699L193.252 59.8924C194.975 59.1602 196.955 57.909 199.129 56.2713L195.518 51.4793ZM209.269 39.221C204.213 44.0347 199.533 48.454 195.518 51.4793L199.129 56.2713C203.476 52.9957 208.422 48.312 213.406 43.5665L209.269 39.221ZM209.772 38.742L209.269 39.2212L213.406 43.5664L213.91 43.0873L209.772 38.742ZM224.086 25.9247C219.553 29.4235 214.498 34.2416 209.772 38.7421L213.91 43.0872C218.706 38.5201 223.517 33.9432 227.752 30.6744L224.086 25.9247ZM231.46 21.2808C228.944 22.411 226.427 24.1176 224.086 25.9247L227.752 30.6744C229.945 28.982 232.03 27.6022 233.918 26.754L231.46 21.2808ZM241.156 20.3802C237.385 19.103 233.789 20.2347 231.46 21.2808L233.918 26.754C235.783 25.9165 237.626 25.5194 239.232 26.0632L241.156 20.3802ZM248.014 27.5306C247.076 24.5916 244.946 21.6634 241.156 20.3802L239.232 26.0632C240.834 26.6056 241.805 27.8087 242.298 29.3555L248.014 27.5306ZM248.618 35.2121C248.825 32.9312 248.851 30.1522 248.014 27.5306L242.298 29.3555C242.775 30.8477 242.822 32.6868 242.643 34.6709L248.618 35.2121ZM245.677 49.3536C246.853 44.822 248.222 39.5845 248.618 35.2121L242.643 34.6709C242.3 38.4492 241.085 43.1625 239.869 47.8456L245.677 49.3536ZM245.5 50.0358C245.558 49.8097 245.617 49.5824 245.677 49.3536L239.869 47.8457C239.81 48.0742 239.751 48.3026 239.692 48.53L245.5 50.0358ZM242.876 62.689C243.11 59.4424 244.175 55.1458 245.5 50.0359L239.692 48.5299C238.407 53.4827 237.172 58.3542 236.892 62.2592L242.876 62.689ZM242.962 65.1853C242.911 65.0294 242.76 64.3072 242.876 62.689L236.892 62.2591C236.752 64.2084 236.858 65.8288 237.262 67.0591L242.962 65.1853ZM241.496 63.8871C241.49 63.8849 241.583 63.9175 241.695 63.9681C241.813 64.022 241.943 64.091 242.077 64.1792C242.348 64.3586 242.547 64.5594 242.687 64.735C242.934 65.0465 242.993 65.2786 242.962 65.1853L237.262 67.0591C237.402 67.482 237.616 67.9975 237.99 68.4684C238.193 68.7238 238.448 68.9733 238.767 69.1839C239.098 69.4031 239.393 69.5067 239.46 69.5311L241.496 63.8871ZM241.673 63.9565C241.612 63.9303 241.562 63.9115 241.538 63.9024C241.525 63.8974 241.514 63.8934 241.507 63.8911C241.502 63.889 241.496 63.887 241.496 63.887L239.461 69.5312C239.468 69.5337 239.451 69.5276 239.431 69.5203C239.411 69.5126 239.365 69.4952 239.307 69.4704L241.673 63.9565ZM243.553 62.8949C242.442 63.5957 241.803 63.8096 241.521 63.8689C241.302 63.9151 241.419 63.8474 241.674 63.957L239.306 69.4699C241.443 70.3877 243.897 69.7716 246.754 67.9697L243.553 62.8949ZM251.254 56.3178C248.237 59.2108 245.761 61.5023 243.553 62.8949L246.754 67.9697C249.569 66.1943 252.484 63.4504 255.406 60.6484L251.254 56.3178ZM251.822 55.772C251.63 55.9562 251.441 56.138 251.254 56.3178L255.406 60.6485C255.596 60.4665 255.787 60.283 255.979 60.0991L251.822 55.772ZM260.568 48.2588C257.526 50.2794 254.41 53.2862 251.822 55.772L255.979 60.0991C258.679 57.5053 261.386 54.9187 263.888 53.2566L260.568 48.2588ZM275.324 47.2065C269.448 43.2438 263.47 46.3312 260.568 48.2588L263.888 53.2566C266.568 51.4762 269.44 50.4755 271.97 52.1813L275.324 47.2065ZM281.476 59.097C281.163 55.5273 280.004 50.362 275.324 47.2065L271.97 52.1813C274.344 53.7817 275.233 56.59 275.499 59.62L281.476 59.097ZM281.051 70.1589C281.381 66.9211 281.8 62.8053 281.476 59.0971L275.499 59.62C275.765 62.6621 275.423 66.1987 275.082 69.5509L281.051 70.1589ZM281.03 70.3582L281.051 70.159L275.082 69.5507L275.061 69.7499L281.03 70.3582ZM280.559 78.3119C280.423 76.4253 280.67 73.8914 281.03 70.3581L275.061 69.7499C274.722 73.0756 274.392 76.2158 274.575 78.7448L280.559 78.3119ZM280.697 79.3298C280.738 79.4182 280.716 79.3998 280.676 79.2136C280.638 79.0372 280.591 78.7461 280.559 78.312L274.575 78.7448C274.667 80.0221 274.887 81.0693 275.26 81.8681L280.697 79.3298ZM280.524 79.0367C280.618 79.1706 280.672 79.2752 280.697 79.3298L275.26 81.8681C275.364 82.09 275.48 82.2939 275.61 82.4792L280.524 79.0367ZM277.875 78.0258C277.748 78.1025 277.965 77.9414 278.391 77.8978C278.883 77.8475 279.23 77.9923 279.268 78.0088L276.866 83.507C277.355 83.7206 278.089 83.9601 279.002 83.8666C279.848 83.78 280.519 83.4381 280.978 83.1612L277.875 78.0258ZM279.611 76.0323C279.203 76.6456 278.829 77.1173 278.509 77.4604C278.179 77.8146 277.96 77.9745 277.875 78.0258L280.978 83.1612C282.317 82.3519 283.548 80.9483 284.608 79.3523L279.611 76.0323ZM281.574 72.3525C281.079 73.4821 280.403 74.84 279.611 76.0323L284.608 79.3523C285.66 77.7688 286.495 76.0711 287.07 74.7595L281.574 72.3525ZM282.113 71.0366C281.996 71.3457 281.814 71.8042 281.574 72.3525L287.07 74.7596C287.356 74.106 287.575 73.5537 287.722 73.1666L282.113 71.0366ZM282.237 70.701C282.213 70.7685 282.171 70.883 282.113 71.0369L287.722 73.1664C287.796 72.973 287.851 72.8211 287.888 72.7187L282.237 70.701ZM282.249 70.668C282.245 70.6776 282.241 70.6886 282.237 70.701L287.888 72.7187C287.895 72.699 287.901 72.6813 287.906 72.6658L282.249 70.668ZM282.26 70.637C282.258 70.6417 282.254 70.652 282.249 70.6677L287.906 72.6662C287.915 72.6408 287.923 72.6196 287.928 72.603L282.26 70.637ZM282.265 70.6222L282.261 70.633L287.927 72.607L287.931 72.5961L282.265 70.6222ZM282.256 70.6477C282.256 70.6463 282.257 70.6452 282.257 70.6457C282.257 70.6458 282.256 70.6475 282.255 70.6494L287.94 72.5689C287.94 72.5703 287.939 72.5714 287.939 72.5709C287.939 72.5708 287.94 72.5691 287.941 72.5672L282.256 70.6477ZM282.272 70.6028C282.266 70.6173 282.262 70.6291 282.26 70.6363C282.259 70.64 282.258 70.643 282.257 70.6448C282.257 70.6457 282.256 70.6465 282.256 70.647C282.256 70.6472 282.256 70.6474 282.256 70.6475C282.256 70.6477 282.256 70.6478 282.256 70.6478C282.256 70.6481 282.256 70.6467 282.257 70.6452C282.257 70.6434 282.258 70.6406 282.26 70.637C282.262 70.63 282.266 70.6185 282.271 70.6042L287.926 72.6107C287.931 72.5961 287.935 72.5843 287.937 72.5771C287.939 72.5734 287.94 72.5705 287.94 72.5686C287.94 72.5677 287.941 72.5669 287.941 72.5664C287.941 72.5662 287.941 72.566 287.941 72.5659C287.941 72.5658 287.941 72.5657 287.941 72.5657C287.941 72.5654 287.941 72.5667 287.94 72.5683C287.94 72.57 287.939 72.5729 287.938 72.5764C287.935 72.5834 287.931 72.595 287.926 72.6092L282.272 70.6028ZM282.266 70.6191C282.261 70.6336 282.257 70.6454 282.254 70.6526C282.253 70.6563 282.252 70.6593 282.251 70.6611C282.251 70.6621 282.251 70.6628 282.251 70.6633C282.251 70.6636 282.251 70.6638 282.251 70.6639C282.251 70.6639 282.251 70.664 282.251 70.664C282.251 70.6641 282.251 70.6641 282.251 70.6641C282.25 70.6644 282.251 70.663 282.251 70.6615C282.252 70.6597 282.253 70.6569 282.254 70.6533C282.256 70.6463 282.26 70.6347 282.265 70.6204L287.932 72.5916C287.937 72.5771 287.941 72.5653 287.944 72.5581C287.945 72.5544 287.946 72.5514 287.947 72.5495C287.947 72.5486 287.947 72.5478 287.947 72.5474C287.947 72.5471 287.947 72.5469 287.947 72.5468C287.947 72.5467 287.948 72.5467 287.948 72.5467C287.948 72.5466 287.948 72.5466 287.948 72.5466C287.948 72.5463 287.947 72.5476 287.947 72.5492C287.946 72.5509 287.945 72.5538 287.944 72.5574C287.942 72.5644 287.938 72.576 287.933 72.5902L282.266 70.6191ZM291.127 66.2566C287.467 65.0208 283.498 66.9838 282.258 70.6417L287.94 72.5677C288.118 72.0452 288.685 71.7648 289.207 71.9413L291.127 66.2566ZM295.52 75.128C296.756 71.4652 294.79 67.4933 291.127 66.2566L289.207 71.9413C289.731 72.118 290.012 72.6854 289.835 73.2087L295.52 75.128ZM287.928 75.7311L291.718 77.0107L293.637 71.326L289.847 70.0464L287.928 75.7311ZM295.517 75.1372C295.517 75.1372 295.523 75.118 295.529 75.0989C295.536 75.0797 295.553 75.0219 295.564 74.9832C295.593 74.8825 295.633 74.7207 295.656 74.5178C295.709 74.0629 295.663 73.5524 295.458 73.0466C295.115 72.1969 294.491 71.7779 294.39 71.7075C294.201 71.5764 294.04 71.4972 293.99 71.4732C293.921 71.4395 293.865 71.4155 293.837 71.4038C293.781 71.3803 293.736 71.3635 293.723 71.3586C293.704 71.3514 293.688 71.3458 293.679 71.3426C293.65 71.3321 293.616 71.3206 293.589 71.3113C293.525 71.2892 293.402 71.2474 293.165 71.1675C292.69 71.0067 291.742 70.6861 289.847 70.0464L287.928 75.7311C289.823 76.371 290.769 76.6907 291.241 76.8506C291.479 76.931 291.593 76.9696 291.646 76.988C291.678 76.999 291.674 76.9977 291.66 76.9925C291.654 76.9906 291.641 76.986 291.624 76.9796C291.613 76.9754 291.57 76.9592 291.514 76.936C291.487 76.9246 291.431 76.9007 291.362 76.8671C291.313 76.8432 291.152 76.7642 290.964 76.6331C290.865 76.5648 290.699 76.4409 290.52 76.2559C290.341 76.0703 290.081 75.7538 289.895 75.2942C289.691 74.7884 289.644 74.2779 289.697 73.823C289.72 73.6201 289.76 73.4584 289.789 73.3577C289.8 73.319 289.818 73.2612 289.824 73.242C289.83 73.2228 289.837 73.2037 289.837 73.2036L295.517 75.1372ZM295.513 75.1468L295.514 75.1443L289.839 73.1966L289.838 73.199L295.513 75.1468ZM295.516 75.1385L295.518 75.1325L289.833 73.2132L289.831 73.2191L295.516 75.1385ZM295.507 75.1648L295.513 75.1489L289.835 73.2088L289.83 73.2247L295.507 75.1648ZM295.488 75.2205L295.505 75.1726L289.832 73.2169L289.816 73.2649L295.488 75.2205ZM295.454 75.3177C295.466 75.283 295.477 75.2526 295.486 75.2268L289.818 73.2586C289.812 73.2762 289.804 73.298 289.795 73.3238L295.454 75.3177ZM295.422 75.4088C295.433 75.376 295.444 75.3459 295.454 75.3188L289.795 73.3227C289.788 73.3434 289.78 73.3664 289.771 73.3916L295.422 75.4088ZM295.201 76.0063C295.295 75.7598 295.368 75.5578 295.422 75.4089L289.771 73.3915C289.73 73.5053 289.67 73.6696 289.592 73.8763L295.201 76.0063ZM294.398 77.9689C294.745 77.1752 295.015 76.4977 295.201 76.0062L289.592 73.8764C289.435 74.2897 289.203 74.8733 288.902 75.5619L294.398 77.9689ZM291.272 83.7791C292.67 81.6742 293.717 79.5237 294.398 77.969L288.902 75.5619C288.301 76.9342 287.413 78.7451 286.274 80.459L291.272 83.7791ZM285.115 90.0085C287.922 88.3121 289.939 85.7861 291.272 83.779L286.274 80.459C285.146 82.1579 283.718 83.842 282.012 84.8731L285.115 90.0085ZM273.505 90.7677C277.831 92.7227 281.983 91.9007 285.115 90.0085L282.012 84.8731C280.253 85.9361 278.189 86.3003 275.976 85.3L273.505 90.7677ZM266.596 79.322C266.819 82.4107 267.831 88.204 273.505 90.7677L275.976 85.3C273.576 84.2158 272.78 81.6538 272.58 78.8891L266.596 79.322ZM267.064 69.3116C266.755 72.3333 266.361 76.0816 266.596 79.322L272.58 78.8891C272.391 76.2754 272.709 73.086 273.033 69.9235L267.064 69.3116ZM267.123 68.7402C267.104 68.9286 267.084 69.1189 267.064 69.3117L273.033 69.9234C273.053 69.7309 273.073 69.5388 273.092 69.3483L267.123 68.7402ZM267.529 60.3173C267.717 62.4669 267.481 65.2219 267.123 68.7402L273.092 69.3482C273.437 65.9566 273.753 62.6139 273.506 59.7943L267.529 60.3173ZM267.498 58.8142C267.174 58.5963 267.121 58.3987 267.185 58.5472C267.265 58.729 267.435 59.2398 267.529 60.3173L273.506 59.7943C273.256 56.9344 272.452 54.9184 270.852 53.8395L267.498 58.8142ZM269.46 59.2746C269.454 59.2757 269.386 59.2887 269.277 59.2967C269.186 59.3034 268.946 59.3163 268.633 59.2628C268.36 59.2158 267.678 59.0597 267.064 58.4536C266.735 58.1291 266.481 57.7274 266.33 57.277C266.179 56.8257 266.175 56.4493 266.175 56.3269H272.175C272.175 55.8654 272.058 54.9519 271.277 54.182C270.654 53.5674 269.956 53.4019 269.648 53.3491C269.05 53.2466 268.53 53.3439 268.341 53.3799L269.46 59.2746ZM268.314 59.9203C268.761 59.6235 269.084 59.4496 269.293 59.3528C269.513 59.2508 269.559 59.2557 269.46 59.2746L268.341 53.3799C267.358 53.5665 266.242 54.0936 264.994 54.9225L268.314 59.9203ZM261.276 66.1038C264.234 63.2663 266.44 61.1654 268.314 59.9203L264.994 54.9225C262.569 56.5335 259.925 59.0856 257.122 61.7739L261.276 66.1038ZM260.944 66.4224L261.276 66.1039L257.122 61.7738L256.79 62.0922L260.944 66.4224ZM251.022 74.7362C254.642 72.4528 258.138 69.113 260.943 66.4226L256.791 62.092C253.899 64.8654 250.837 67.7588 247.821 69.6613L251.022 74.7362ZM236.148 76.8205C242.029 79.3463 247.523 76.9431 251.022 74.7362L247.821 69.6613C244.811 71.5595 241.594 72.6296 238.517 71.3076L236.148 76.8205ZM229.663 69.5575C230.613 72.449 232.621 75.3052 236.148 76.8205L238.517 71.3076C236.895 70.6112 235.897 69.3101 235.363 67.6837L229.663 69.5575ZM228.912 61.686C228.74 64.0844 228.789 66.8991 229.663 69.5575L235.363 67.6837C234.841 66.0964 234.749 64.1775 234.897 62.1159L228.912 61.686ZM231.948 46.522C230.715 51.2766 229.256 56.9066 228.912 61.686L234.897 62.1159C235.193 57.992 236.485 52.9302 237.756 48.0279L231.948 46.522ZM232.023 46.2331L231.948 46.5218L237.756 48.0281L237.83 47.7394L232.023 46.2331ZM234.675 33.9493C234.394 37.0508 233.331 41.1888 232.023 46.2332L237.83 47.7394C239.089 42.887 240.315 38.1956 240.651 34.4905L234.675 33.9493ZM234.677 31.7888C234.662 31.7398 234.707 31.8679 234.728 32.263C234.749 32.6393 234.744 33.1902 234.675 33.9493L240.651 34.4905C240.821 32.6059 240.749 31.0799 240.393 29.9638L234.677 31.7888ZM234.687 31.8159C234.683 31.8052 234.68 31.7959 234.677 31.7879L240.393 29.9647C240.378 29.9177 240.363 29.8722 240.348 29.8281L234.687 31.8159ZM237.197 34.0515C237.814 33.7741 237.985 33.7899 237.821 33.8066L237.214 27.8374C236.596 27.9003 235.796 28.1032 234.738 28.5783L237.197 34.0515ZM232.64 37.0074C234.637 35.4661 236.147 34.523 237.197 34.0515L234.738 28.5783C233.059 29.3325 231.117 30.6033 228.974 32.2577L232.64 37.0074ZM219.241 49.0574C224.195 44.3409 228.742 40.016 232.64 37.0074L228.974 32.2576C224.776 35.4981 219.979 40.0702 215.104 44.712L219.241 49.0574ZM218.923 49.3605L219.241 49.0574L215.104 44.712L214.785 45.0151L218.923 49.3605ZM203.943 62.6606C208.732 59.0519 214.031 54.0175 218.923 49.3606L214.785 45.015C209.824 49.7382 204.79 54.5097 200.332 57.8686L203.943 62.6606ZM196.379 67.2558C198.973 66.1542 201.551 64.4625 203.943 62.6606L200.332 57.8686C198.104 59.5473 195.975 60.9087 194.033 61.7333L196.379 67.2558ZM186.605 68.0062C190.338 69.2936 193.929 68.2962 196.379 67.2558L194.033 61.7333C192.11 62.5504 190.218 62.9054 188.561 62.3341L186.605 68.0062ZM181.629 64.253C182.882 66.0788 184.639 67.3282 186.605 68.0062L188.561 62.3342C187.717 62.0429 187.048 61.5451 186.576 60.8579L181.629 64.253ZM179.824 59.1171C179.975 60.661 180.437 62.5163 181.629 64.253L186.576 60.8579C186.113 60.1833 185.879 59.3828 185.796 58.5326L179.824 59.1171ZM180.992 50.8189C180.245 53.2232 179.54 56.2175 179.824 59.1171L185.796 58.5326C185.632 56.8601 186.037 54.8047 186.722 52.5976L180.992 50.8189ZM187.217 36.076C184.952 40.8842 182.396 46.2948 180.992 50.8189L186.722 52.5976C187.975 48.5597 190.32 43.5678 192.645 38.6331L187.217 36.076ZM187.867 34.6944C187.653 35.1505 187.436 35.6109 187.217 36.076L192.645 38.6331C192.864 38.1685 193.082 37.7051 193.298 37.2457L187.867 34.6944ZM193.253 21.4018C192.539 24.5252 190.501 29.0879 187.867 34.6944L193.298 37.2457C195.843 31.8274 198.214 26.6257 199.102 22.7392L193.253 21.4018ZM193.463 20.0509C193.458 20.2616 193.415 20.6949 193.253 21.4018L199.102 22.7392C199.322 21.7787 199.444 20.9261 199.461 20.1907L193.463 20.0509ZM193.463 20.0102C193.463 20.0214 193.463 20.0349 193.463 20.0507L199.461 20.1909C199.463 20.1237 199.463 20.059 199.463 19.9966L193.463 20.0102ZM194.385 24.0674C195.203 23.5698 195.799 23.2922 196.194 23.1425C196.605 22.9869 196.738 22.9923 196.644 22.9979L196.282 17.0089C194.993 17.0868 193.338 17.6818 191.267 18.9415L194.385 24.0674ZM187.803 29.2508C190.403 26.8829 192.605 25.1502 194.385 24.0674L191.267 18.9415C189.013 20.3128 186.485 22.3358 183.763 24.8151L187.803 29.2508ZM170.945 46.7085C176.953 40.1609 182.71 33.8902 187.803 29.2508L183.763 24.8151C178.429 29.6741 172.473 36.1681 166.524 42.6519L170.945 46.7085ZM170.569 47.1181L170.945 46.7085L166.524 42.6519L166.148 43.0615L170.569 47.1181ZM152.74 65.3803C158.309 60.4649 164.578 53.6464 170.569 47.1182L166.148 43.0615C160.094 49.6592 154.052 56.2188 148.769 60.8821L152.74 65.3803ZM144.199 71.6018C147.061 70.0838 149.967 67.8282 152.74 65.3803L148.769 60.8821C146.13 63.2119 143.636 65.1089 141.388 66.3014L144.199 71.6018ZM83.2201 75.2614C83.662 74.8315 84.2481 74.5282 84.911 74.439C85.5326 74.3554 86.0479 74.482 86.3844 74.6112C86.9961 74.8459 87.3627 75.2184 87.4814 75.3434C87.7704 75.6477 87.9219 75.9389 87.97 76.0332C88.0995 76.2875 88.1581 76.4972 88.1826 76.5947L82.3627 78.0537C82.404 78.2187 82.4799 78.4744 82.6237 78.7567C82.6789 78.8651 82.8368 79.1658 83.131 79.4755C83.2523 79.6032 83.6212 79.9775 84.2349 80.2129C85.0063 80.5089 86.3431 80.594 87.4038 79.5621L83.2201 75.2614ZM82.8402 79.0803C82.7424 78.9447 82.6197 78.7469 82.5165 78.4852C82.4699 78.3671 82.3909 78.1452 82.3466 77.8522C82.3257 77.714 82.2942 77.4456 82.3281 77.1085C82.3506 76.8847 82.4531 76.0075 83.2201 75.2614L87.4038 79.5621C88.1719 78.8149 88.2752 77.9356 88.298 77.7089C88.3322 77.3689 88.3006 77.0967 88.279 76.954C88.2332 76.6519 88.1508 76.4175 88.0982 76.2843C87.9831 75.9923 87.8384 75.753 87.705 75.5682L82.8402 79.0803ZM87.8924 49.5524L87.8762 49.573L92.5877 53.288L92.604 53.2674L87.8924 49.5524Z" fill="#956C4B" mask="url(#path-13-outside-1_402_2360)"/>
</g>
<defs>
<filter id="filter0_d_402_2360" x="22" y="14.8467" width="303.963" height="169.042" filterUnits="userSpaceOnUse" color-interpolation-filters="sRGB">
<feFlood flood-opacity="0" result="BackgroundImageFix"/>
<feColorMatrix in="SourceAlpha" type="matrix" values="0 0 0 0 0 0 0 0 0 0 0 0 0 0 0 0 0 0 127 0" result="hardAlpha"/>
<feOffset dy="4"/>
<feGaussianBlur stdDeviation="4"/>
<feComposite in2="hardAlpha" operator="out"/>
<feColorMatrix type="matrix" values="0 0 0 0 0 0 0 0 0 0 0 0 0 0 0 0 0 0 0.08 0"/>
<feBlend mode="normal" in2="BackgroundImageFix" result="effect1_dropShadow_402_2360"/>
<feBlend mode="normal" in="SourceGraphic" in2="effect1_dropShadow_402_2360" result="shape"/>
</filter>
<filter id="filter1_d_402_2360" x="66.2637" y="5" width="237.626" height="98.8901" filterUnits="userSpaceOnUse" color-interpolation-filters="sRGB">
<feFlood flood-opacity="0" result="BackgroundImageFix"/>
<feColorMatrix in="SourceAlpha" type="matrix" values="0 0 0 0 0 0 0 0 0 0 0 0 0 0 0 0 0 0 127 0" result="hardAlpha"/>
<feOffset dy="4"/>
<feGaussianBlur stdDeviation="4"/>
<feComposite in2="hardAlpha" operator="out"/>
<feColorMatrix type="matrix" values="0 0 0 0 0 0 0 0 0 0 0 0 0 0 0 0 0 0 0.08 0"/>
<feBlend mode="normal" in2="BackgroundImageFix" result="effect1_dropShadow_402_2360"/>
<feBlend mode="normal" in="SourceGraphic" in2="effect1_dropShadow_402_2360" result="shape"/>
</filter>
<linearGradient id="paint0_linear_402_2360" x1="185.073" y1="12" x2="185.073" y2="88.8891" gradientUnits="userSpaceOnUse">
<stop stop-color="#B38764"/>
<stop offset="1" stop-color="#916D51"/>
</linearGradient>
</defs>
</svg>
