<svg width="350" height="350" viewBox="0 0 350 350" fill="none" xmlns="http://www.w3.org/2000/svg">
<path fill-rule="evenodd" clip-rule="evenodd" d="M185.48 196.973C185.332 189.926 187.286 179.475 195.072 168.073C203.078 156.351 199.149 150.841 194.316 144.065C190.697 138.991 186.572 133.207 186.572 123.573C186.572 113.564 189.937 108.403 192.924 103.821C196.651 98.1033 199.791 93.2866 195.072 81.0735C193.229 76.3016 191.291 72.1883 189.56 68.5144C183.449 55.5418 179.917 48.0458 192.218 36.3677C186.429 37.4657 180.631 39.6554 174.446 42.6411C169.965 43.9687 165.129 45.2964 160.047 46.6917C119.192 57.9084 62.3992 73.5006 45.946 128.641C27.446 190.641 52.946 228.641 74.946 255.141C96.946 281.641 130.946 311.141 145.446 290.641C156.843 274.529 176.573 222.348 185.48 196.973Z" fill="#FFA29A"/>
<path fill-rule="evenodd" clip-rule="evenodd" d="M191.705 36.4685C213.238 32.1462 234.501 42.7999 274.946 83.6417C325.946 135.142 320.446 200.642 305.446 241.642C291.182 280.631 272.848 269.43 244.855 252.328C243.411 251.447 241.942 250.549 240.446 249.642C216.046 234.842 193.946 207.475 185.946 195.642C185.678 196.409 185.399 197.204 185.11 198.025C184.739 190.99 186.481 180.057 194.664 168.074C202.67 156.352 198.74 150.842 193.908 144.066C190.289 138.992 186.164 133.208 186.164 123.574C186.164 113.565 189.528 108.404 192.515 103.822C196.243 98.1039 199.383 93.2872 194.664 81.074C192.82 76.3022 190.883 72.1889 189.152 68.515L189.152 68.5149C183.058 55.5796 179.529 48.0893 191.705 36.4685Z" fill="#FFA29A"/>
<path opacity="0.5" d="M192.595 35.8943C214.128 31.572 235.391 42.2257 275.836 83.0675C326.836 134.567 321.336 200.067 306.336 241.067C292.072 280.057 273.738 268.856 245.745 251.754C244.301 250.872 242.832 249.975 241.336 249.067C216.936 234.267 194.836 206.901 186.836 195.067C186.568 195.835 186.289 196.63 186 197.451" stroke="#FFC8C1" stroke-width="4" stroke-linecap="round"/>
<path opacity="0.5" d="M185.48 196.606C176.573 221.98 156.843 274.161 145.446 290.273C130.946 310.773 96.946 281.273 74.946 254.773C52.946 228.273 27.446 190.273 45.946 128.273C62.3992 73.1329 119.192 57.5407 160.047 46.3241C165.129 44.9287 169.965 43.6011 174.446 42.2734C180.631 39.2878 186.429 37.098 192.218 36" stroke="#FFC8C1" stroke-width="4" stroke-linecap="round"/>
<path opacity="0.5" d="M124.334 261.194C109.453 250.129 89.6637 235.417 74.8344 209.614C66.1799 194.556 62.0593 178.159 61 162" stroke="#F37464" stroke-width="4" stroke-linecap="round"/>
<path opacity="0.5" d="M185 199C186.833 192.235 190.8 176.765 192 169" stroke="#FFC8C1" stroke-width="4" stroke-linecap="round"/>
<path d="M173.005 102.567C173.005 98.0674 176.005 97.5674 179.505 97.5674C182.005 99.0674 182.505 103.567 180.505 105.567C178.505 107.567 173.005 107.067 173.005 102.567Z" fill="#821C1C"/>
<path d="M197.005 104.067C197.005 99.5674 200.005 99.0674 203.505 99.0674C206.005 100.567 206.505 105.067 204.505 107.067C202.505 109.067 197.005 108.567 197.005 104.067Z" fill="#821C1C"/>
<path d="M181.2 116.622C184.601 115.656 188.396 116.995 195.962 116.979C200.917 116.308 203.007 120.566 196.701 122.429C190.394 124.293 187.234 123.921 182.011 122.61C176.787 121.299 177.798 117.587 181.2 116.622Z" fill="#821C1C"/>
<ellipse cx="218" cy="112" rx="9" ry="5" fill="#FFE9E9"/>
<ellipse cx="161" cy="112" rx="9" ry="5" fill="#FFE9E9"/>
<g filter="url(#filter0_d_402_2419)">
<path d="M88.5056 60.9998C85.0055 69.4999 100.505 74.5 109.505 76.4999C118.505 69.5 129.066 54.5173 118.505 51.4999C111.505 49.4999 106.505 54.9999 106.505 63.9999C103.005 55.4999 91.7182 53.1983 88.5056 60.9998Z" fill="#F46D6D"/>
<path d="M109.288 77.4761C109.579 77.5408 109.884 77.4722 110.119 77.2893C114.709 73.7197 119.712 68.1116 122.239 62.9459C123.495 60.3786 124.216 57.7673 123.804 55.5149C123.594 54.3653 123.089 53.3174 122.231 52.4501C121.379 51.5891 120.225 50.9512 118.78 50.5383C114.944 49.4424 111.551 50.3997 109.153 52.9383C107.392 54.8031 106.224 57.4582 105.748 60.63C103.644 57.7776 100.614 55.9528 97.5758 55.4028C93.5458 54.6732 89.401 56.1993 87.581 60.6191C86.5705 63.073 86.9407 65.3238 88.206 67.2713C89.4353 69.1633 91.4871 70.7445 93.8281 72.0593C98.5208 74.695 104.761 76.4701 109.288 77.4761Z" stroke="#ED5D5D" stroke-width="2" stroke-linecap="round" stroke-linejoin="round"/>
</g>
<g filter="url(#filter1_d_402_2419)">
<path d="M215.21 52.4499C207.507 57.4673 217.44 70.3738 223.72 77.1242C235.102 76.4607 252.297 70.1067 245.308 61.6334C240.676 56.0171 233.439 57.7128 228.336 65.1265C230.272 56.1403 222.279 47.8449 215.21 52.4499Z" fill="#F46D6D"/>
<path d="M222.988 77.8053C223.191 78.0235 223.481 78.1398 223.778 78.1225C229.583 77.7841 236.883 76.0011 241.894 73.1788C244.384 71.7761 246.458 70.0337 247.396 67.9448C247.875 66.8787 248.053 65.7292 247.838 64.5284C247.625 63.3363 247.036 62.1564 246.08 60.9971C243.541 57.9195 240.203 56.7842 236.789 57.5159C234.281 58.0535 231.814 59.5786 229.623 61.9212C229.507 58.3786 228.046 55.1576 225.855 52.9819C222.949 50.0961 218.669 49.0031 214.664 51.612C212.44 53.0605 211.469 55.1245 211.407 57.4461C211.347 59.7015 212.141 62.1674 213.324 64.5777C215.695 69.4095 219.829 74.4099 222.988 77.8053Z" stroke="#ED5D5D" stroke-width="2" stroke-linecap="round" stroke-linejoin="round"/>
</g>
<g filter="url(#filter2_d_402_2419)">
<path d="M147.691 56.8769C141.713 62.7837 149.882 70.1254 156.745 75.0186C166.817 72.3359 178.508 63.1832 170.694 56.8769C165.515 52.6971 161.887 55.8508 158.678 63.4267C158.763 55.0235 153.177 51.4556 147.691 56.8769Z" fill="#F46D6D"/>
<path d="M156.165 75.8328C156.407 76.0058 156.714 76.0616 157.002 75.9849C162.177 74.6066 167.796 71.5673 171.156 67.9912C172.833 66.206 174.042 64.1847 174.224 62.0809C174.412 59.9033 173.485 57.8438 171.322 56.0988C169.943 54.9855 168.585 54.293 167.237 54.0835C165.862 53.87 164.584 54.1721 163.42 54.8936C161.875 55.8521 160.536 57.5499 159.325 59.7567C158.761 57.169 157.54 55.1797 155.795 54.1141C153.184 52.5202 149.917 53.2713 146.988 56.1656C145.322 57.8115 144.58 59.6342 144.619 61.5357C144.657 63.3959 145.439 65.2083 146.574 66.8878C148.835 70.2332 152.723 73.3792 156.165 75.8328Z" stroke="#ED5D5D" stroke-width="2" stroke-linecap="round" stroke-linejoin="round"/>
</g>
<g filter="url(#filter3_d_402_2419)">
<path d="M191.691 21.8769C185.713 27.7837 193.882 35.1254 200.745 40.0186C210.817 37.3359 222.508 28.1832 214.694 21.8769C209.515 17.6971 205.887 20.8508 202.678 28.4267C202.763 20.0235 197.177 16.4556 191.691 21.8769Z" fill="#F46D6D"/>
<path d="M200.165 40.8328C200.407 41.0058 200.714 41.0616 201.002 40.9849C206.177 39.6066 211.796 36.5673 215.156 32.9912C216.833 31.206 218.042 29.1847 218.224 27.0809C218.412 24.9033 217.485 22.8438 215.322 21.0988C213.943 19.9855 212.585 19.293 211.237 19.0835C209.862 18.87 208.584 19.1721 207.42 19.8936C205.875 20.8521 204.536 22.5499 203.325 24.7567C202.761 22.169 201.54 20.1797 199.795 19.1141C197.184 17.5202 193.917 18.2713 190.988 21.1656C189.322 22.8115 188.58 24.6342 188.619 26.5357C188.657 28.3959 189.439 30.2083 190.574 31.8878C192.835 35.2332 196.723 38.3792 200.165 40.8328Z" stroke="#ED5D5D" stroke-width="2" stroke-linecap="round" stroke-linejoin="round"/>
</g>
<path d="M171.023 43.5064C172.019 42.9609 172.792 42.3824 173.31 41.7595C173.838 41.1258 174.144 40.3915 174.059 39.6014C173.976 38.8263 173.538 38.1943 172.991 37.7074C172.445 37.2206 171.727 36.819 170.919 36.4904C169.234 35.8042 166.885 35.6342 165.102 36.1054C164.215 36.3399 163.306 36.776 162.755 37.5573C162.152 38.4131 162.128 39.4619 162.609 40.5379C163.37 42.2383 164.322 43.692 165.795 44.316C167.318 44.961 169.052 44.5864 171.023 43.5064Z" fill="white" stroke="#E1E1E1" stroke-width="2" stroke-linecap="round" stroke-linejoin="round"/>
<path d="M256.018 86.5064C257.013 85.9609 257.786 85.3824 258.305 84.7595C258.833 84.1258 259.138 83.3915 259.054 82.6014C258.971 81.8263 258.533 81.1943 257.986 80.7074C257.44 80.2206 256.721 79.819 255.914 79.4904C254.228 78.8042 251.88 78.6342 250.096 79.1054C249.209 79.3399 248.3 79.776 247.75 80.5573C247.147 81.4131 247.122 82.4619 247.604 83.5379C248.365 85.2383 249.316 86.692 250.79 87.316C252.313 87.961 254.047 87.5864 256.018 86.5064Z" fill="white" stroke="#E1E1E1" stroke-width="2" stroke-linecap="round" stroke-linejoin="round"/>
<path d="M196.023 74.5064C197.019 73.9609 197.792 73.3824 198.31 72.7595C198.838 72.1258 199.144 71.3915 199.059 70.6014C198.976 69.8263 198.538 69.1943 197.991 68.7074C197.445 68.2206 196.727 67.819 195.919 67.4904C194.234 66.8042 191.885 66.6342 190.102 67.1054C189.215 67.3399 188.306 67.776 187.755 68.5573C187.152 69.4131 187.128 70.4619 187.609 71.5379C188.37 73.2383 189.322 74.692 190.795 75.316C192.318 75.961 194.052 75.5864 196.023 74.5064Z" fill="white" stroke="#E1E1E1" stroke-width="2" stroke-linecap="round" stroke-linejoin="round"/>
<path d="M240.023 51.5064C241.019 50.9609 241.792 50.3824 242.31 49.7595C242.838 49.1258 243.144 48.3915 243.059 47.6014C242.976 46.8263 242.538 46.1943 241.991 45.7074C241.445 45.2206 240.727 44.819 239.919 44.4904C238.234 43.8042 235.885 43.6342 234.102 44.1054C233.215 44.3399 232.306 44.776 231.755 45.5573C231.152 46.4131 231.128 47.4619 231.609 48.5379C232.37 50.2383 233.322 51.692 234.795 52.316C236.318 52.961 238.052 52.5864 240.023 51.5064Z" fill="white" stroke="#E1E1E1" stroke-width="2" stroke-linecap="round" stroke-linejoin="round"/>
<path d="M134.023 85.5064C135.019 84.9609 135.792 84.3824 136.31 83.7595C136.838 83.1258 137.144 82.3915 137.059 81.6014C136.976 80.8263 136.538 80.1943 135.991 79.7074C135.445 79.2206 134.727 78.819 133.919 78.4904C132.234 77.8042 129.885 77.6342 128.102 78.1054C127.215 78.3399 126.306 78.776 125.755 79.5573C125.152 80.4131 125.128 81.4619 125.609 82.5379C126.37 84.2383 127.322 85.692 128.795 86.316C130.318 86.961 132.052 86.5864 134.023 85.5064Z" fill="white" stroke="#E1E1E1" stroke-width="2" stroke-linecap="round" stroke-linejoin="round"/>
<path d="M139.018 54.5064C140.013 53.9609 140.786 53.3824 141.305 52.7595C141.833 52.1258 142.138 51.3915 142.054 50.6014C141.971 49.8263 141.533 49.1943 140.986 48.7074C140.44 48.2206 139.721 47.819 138.914 47.4904C137.228 46.8042 134.88 46.6342 133.096 47.1054C132.209 47.3399 131.3 47.776 130.75 48.5573C130.147 49.4131 130.122 50.4619 130.604 51.5379C131.365 53.2383 132.316 54.692 133.79 55.316C135.313 55.961 137.047 55.5864 139.018 54.5064Z" fill="white" stroke="#E1E1E1" stroke-width="2" stroke-linecap="round" stroke-linejoin="round"/>
<g filter="url(#filter4_d_402_2419)">
<path d="M273.772 72.9653C265.499 74.4418 268.066 85.121 270.945 93.0428C280.763 96.5435 295.582 95.6325 292.721 86.0077C290.825 79.6282 286.048 80.1691 279.109 84.5899C283.944 77.7161 281.365 71.6101 273.772 72.9653Z" fill="#F46D6D"/>
<path d="M270.005 93.3844C270.107 93.6645 270.328 93.8847 270.609 93.9848C275.653 95.7833 282.005 96.4657 286.8 95.4246C289.194 94.9048 291.336 93.9253 292.678 92.2956C294.068 90.6085 294.472 88.386 293.68 85.7227C293.175 84.0237 292.449 82.6834 291.457 81.7462C290.446 80.7911 289.221 80.315 287.854 80.2498C286.038 80.1632 283.972 80.8023 281.723 81.9338C282.726 79.4824 282.848 77.1515 282.014 75.2841C280.767 72.4909 277.65 71.2574 273.597 71.9808C271.291 72.3923 269.647 73.4729 268.601 75.0612C267.577 76.615 267.194 78.5515 267.177 80.5786C267.143 84.6163 268.562 89.4121 270.005 93.3844Z" stroke="#ED5D5D" stroke-width="2" stroke-linecap="round" stroke-linejoin="round"/>
</g>
<defs>
<filter id="filter0_d_402_2419" x="81.9998" y="49.0906" width="46.9204" height="37.4094" filterUnits="userSpaceOnUse" color-interpolation-filters="sRGB">
<feFlood flood-opacity="0" result="BackgroundImageFix"/>
<feColorMatrix in="SourceAlpha" type="matrix" values="0 0 0 0 0 0 0 0 0 0 0 0 0 0 0 0 0 0 127 0" result="hardAlpha"/>
<feOffset dy="4"/>
<feGaussianBlur stdDeviation="2"/>
<feComposite in2="hardAlpha" operator="out"/>
<feColorMatrix type="matrix" values="0 0 0 0 0 0 0 0 0 0 0 0 0 0 0 0 0 0 0.12 0"/>
<feBlend mode="normal" in2="BackgroundImageFix" result="effect1_dropShadow_402_2419"/>
<feBlend mode="normal" in="SourceGraphic" in2="effect1_dropShadow_402_2419" result="shape"/>
</filter>
<filter id="filter1_d_402_2419" x="206.404" y="49.134" width="46.5242" height="37.9902" filterUnits="userSpaceOnUse" color-interpolation-filters="sRGB">
<feFlood flood-opacity="0" result="BackgroundImageFix"/>
<feColorMatrix in="SourceAlpha" type="matrix" values="0 0 0 0 0 0 0 0 0 0 0 0 0 0 0 0 0 0 127 0" result="hardAlpha"/>
<feOffset dy="4"/>
<feGaussianBlur stdDeviation="2"/>
<feComposite in2="hardAlpha" operator="out"/>
<feColorMatrix type="matrix" values="0 0 0 0 0 0 0 0 0 0 0 0 0 0 0 0 0 0 0.12 0"/>
<feBlend mode="normal" in2="BackgroundImageFix" result="effect1_dropShadow_402_2419"/>
<feBlend mode="normal" in="SourceGraphic" in2="effect1_dropShadow_402_2419" result="shape"/>
</filter>
<filter id="filter2_d_402_2419" x="139.617" y="52.2898" width="39.6304" height="32.7288" filterUnits="userSpaceOnUse" color-interpolation-filters="sRGB">
<feFlood flood-opacity="0" result="BackgroundImageFix"/>
<feColorMatrix in="SourceAlpha" type="matrix" values="0 0 0 0 0 0 0 0 0 0 0 0 0 0 0 0 0 0 127 0" result="hardAlpha"/>
<feOffset dy="4"/>
<feGaussianBlur stdDeviation="2"/>
<feComposite in2="hardAlpha" operator="out"/>
<feColorMatrix type="matrix" values="0 0 0 0 0 0 0 0 0 0 0 0 0 0 0 0 0 0 0.12 0"/>
<feBlend mode="normal" in2="BackgroundImageFix" result="effect1_dropShadow_402_2419"/>
<feBlend mode="normal" in="SourceGraphic" in2="effect1_dropShadow_402_2419" result="shape"/>
</filter>
<filter id="filter3_d_402_2419" x="183.617" y="17.2898" width="39.6304" height="32.7288" filterUnits="userSpaceOnUse" color-interpolation-filters="sRGB">
<feFlood flood-opacity="0" result="BackgroundImageFix"/>
<feColorMatrix in="SourceAlpha" type="matrix" values="0 0 0 0 0 0 0 0 0 0 0 0 0 0 0 0 0 0 127 0" result="hardAlpha"/>
<feOffset dy="4"/>
<feGaussianBlur stdDeviation="2"/>
<feComposite in2="hardAlpha" operator="out"/>
<feColorMatrix type="matrix" values="0 0 0 0 0 0 0 0 0 0 0 0 0 0 0 0 0 0 0.12 0"/>
<feBlend mode="normal" in2="BackgroundImageFix" result="effect1_dropShadow_402_2419"/>
<feBlend mode="normal" in="SourceGraphic" in2="effect1_dropShadow_402_2419" result="shape"/>
</filter>
<filter id="filter4_d_402_2419" x="262.176" y="70.78" width="36.9043" height="34.1345" filterUnits="userSpaceOnUse" color-interpolation-filters="sRGB">
<feFlood flood-opacity="0" result="BackgroundImageFix"/>
<feColorMatrix in="SourceAlpha" type="matrix" values="0 0 0 0 0 0 0 0 0 0 0 0 0 0 0 0 0 0 127 0" result="hardAlpha"/>
<feOffset dy="4"/>
<feGaussianBlur stdDeviation="2"/>
<feComposite in2="hardAlpha" operator="out"/>
<feColorMatrix type="matrix" values="0 0 0 0 0 0 0 0 0 0 0 0 0 0 0 0 0 0 0.12 0"/>
<feBlend mode="normal" in2="BackgroundImageFix" result="effect1_dropShadow_402_2419"/>
<feBlend mode="normal" in="SourceGraphic" in2="effect1_dropShadow_402_2419" result="shape"/>
</filter>
</defs>
</svg>
