<svg width="289" height="275" viewBox="0 0 289 275" fill="none" xmlns="http://www.w3.org/2000/svg">
<defs>
<radialGradient id="paint0_radial_298_3892" cx="0" cy="0" r="1" gradientUnits="userSpaceOnUse" gradientTransform="translate(169 35) rotate(96.0631) scale(235.24 248.157)">
<stop stop-color="#F29B28"/>
<stop offset="1" stop-color="#EFC477"/>
</radialGradient>
<radialGradient id="paint1_radial_298_3892" cx="0" cy="0" r="1" gradientUnits="userSpaceOnUse" gradientTransform="translate(156 151.567) rotate(95.7644) scale(117.953 124.43)">
<stop stop-color="#E8890B"/>
<stop offset="1" stop-color="#EFC477" stop-opacity="0"/>
</radialGradient>
<linearGradient id="paint2_linear_298_3892" x1="49" y1="177.567" x2="15" y2="203.067" gradientUnits="userSpaceOnUse">
<stop stop-color="#D98302"/>
<stop offset="1" stop-color="#FE9954"/>
</linearGradient>
</defs>
<path d="M12.3738 100.067C30.8738 38.0675 100.374 26.0675 140.874 14.0675C169.874 0.0674562 190.374 3.56746 241.374 55.0675C292.374 106.567 286.874 172.067 271.874 213.067C256.874 254.067 237.374 239.567 206.874 221.067C182.474 206.267 160.374 178.901 152.374 167.067C143.707 191.901 123.474 245.667 111.874 262.067C97.3738 282.567 63.3737 253.067 41.3737 226.567C19.3737 200.067 -6.12625 162.067 12.3738 100.067Z" fill="url(#paint0_radial_298_3892)"/>
<path d="M12.3738 100.067C30.8738 38.0675 100.374 26.0675 140.874 14.0675C169.874 0.0674562 190.374 3.56746 241.374 55.0675C292.374 106.567 286.874 172.067 271.874 213.067C256.874 254.067 237.374 239.567 206.874 221.067C182.474 206.267 160.374 178.901 152.374 167.067C143.707 191.901 123.474 245.667 111.874 262.067C97.3738 282.567 63.3737 253.067 41.3737 226.567C19.3737 200.067 -6.12625 162.067 12.3738 100.067Z" fill="url(#paint1_radial_298_3892)"/>
<path d="M144 77.5674C144 73.0674 147 72.5674 150.5 72.5674C153 74.0674 153.5 78.5674 151.5 80.5674C149.5 82.5674 144 82.0674 144 77.5674Z" fill="#A0450E"/>
<path d="M168 79.0674C168 74.5674 171 74.0674 174.5 74.0674C177 75.5674 177.5 80.0674 175.5 82.0674C173.5 84.0674 168 83.5674 168 79.0674Z" fill="#A0450E"/>
<path d="M148.816 88C152.316 87.5 164.816 90.543 172.316 91.543C177.316 91.543 178.816 96.043 172.316 97.043C165.816 98.043 153.816 96.043 148.816 94.043C143.816 92.043 145.316 88.5 148.816 88Z" fill="#A0450E"/>
<path fill-rule="evenodd" clip-rule="evenodd" d="M40.0225 56.9531C27.7352 67.8262 17.8335 81.7689 12.3738 100.066C-6.12625 162.066 19.3737 200.066 41.3737 226.566C60.1354 249.166 87.6244 273.947 104.304 268.038C104.544 267.726 104.776 267.402 105 267.066C113.931 253.67 103.471 245.893 86.9999 233.647C72.1183 222.582 52.3294 207.87 37.5 182.067C12.7628 139.026 25.0678 85.048 40.0225 56.9531Z" fill="url(#paint2_linear_298_3892)"/>
<path d="M86.6174 234.261C71.7358 223.197 51.9469 208.484 37.1175 182.682C25.9016 163.166 22.3653 140.356 23.5281 118.5" stroke="#FCE9C9" stroke-width="6" stroke-linecap="round"/>
<path d="M40.2832 121.067C41.3425 137.226 45.4631 153.623 54.1176 168.682C68.9469 194.484 88.7359 209.197 103.618 220.261C114.708 228.507 123.074 234.727 124.629 242" stroke="#D88916" stroke-width="6" stroke-linecap="round"/>
<path d="M153 176C154.833 169.235 158.8 153.765 160 146" stroke="#FCE9C9" stroke-width="6" stroke-linecap="round" stroke-linejoin="round"/>
<path d="M183.909 7.18933C167.827 1.27469 154.62 4.13489 139.79 11.2595C135.475 12.5344 130.791 13.82 125.846 15.1771C107.933 20.0933 86.6044 25.9469 67.043 35.6288C41.8446 48.1007 19.068 67.1405 9.499 99.2097C0.0786963 130.78 1.82675 156.41 8.83847 177.573C15.8289 198.673 27.9909 215.144 39.0655 228.484C50.1494 241.835 64.3906 256.117 77.8518 264.49C84.5601 268.663 91.3685 271.555 97.675 271.891C104.211 272.24 110.068 269.816 114.323 263.8C120.357 255.269 128.437 237.393 136.001 218.864C142.58 202.75 148.881 185.855 153.276 173.525C163.232 187.02 183.28 210.265 205.318 223.632C206.789 224.525 208.242 225.413 209.676 226.288C215.599 229.908 221.195 233.326 226.398 236.046C232.846 239.417 239.052 241.917 244.956 242.371C251.046 242.84 256.676 241.118 261.725 236.41C266.639 231.826 270.873 224.535 274.691 214.098C289.909 172.504 295.64 105.602 243.505 52.9565C217.987 27.188 199.711 13.0006 183.909 7.18933Z" stroke="#FCE9C9" stroke-width="6" stroke-linecap="round" stroke-linejoin="round"/>
</svg>
