<svg width="72" height="72" viewBox="0 0 72 72" fill="none" xmlns="http://www.w3.org/2000/svg">
<g id="img / today">
<g id="Group 2609850">
<path id="Vector 782" d="M25.4995 29.9994C25.4997 23.9994 25.5004 12 36.5 12C47.4996 12 47.4997 19.4995 47.4996 28.9994" stroke="#D9D9D9" stroke-width="5" stroke-linecap="round"/>
<path id="Subtract" fill-rule="evenodd" clip-rule="evenodd" d="M17 32C17 29.2386 19.2386 27 22 27H51C53.7614 27 56 29.2386 56 32V56C56 58.7614 53.7614 61 51 61H22C19.2386 61 17 58.7614 17 56V32ZM38.9371 44.5005C40.1673 43.8183 41 42.5064 41 41C41 38.7909 39.2091 37 37 37C34.7909 37 33 38.7909 33 41C33 42.5064 33.8327 43.8183 35.0629 44.5005C35.0218 44.6602 35 44.8275 35 45V51C35 52.1046 35.8954 53 37 53C38.1046 53 39 52.1046 39 51V45C39 44.8275 38.9782 44.6602 38.9371 44.5005Z" fill="#D9D9D9"/>
</g>
</g>
</svg>
