<svg width="72" height="72" viewBox="0 0 72 72" fill="none" xmlns="http://www.w3.org/2000/svg">
<path d="M40.4977 45.344C40.4437 43.688 39.0576 42.3893 37.4016 42.4433C35.7456 42.4972 34.4469 43.8834 34.5009 45.5394C34.6889 51.3122 33.7265 54.0457 32.6955 55.4117C31.8664 56.5101 30.9636 56.8187 30.0783 57.1213C29.8758 57.1906 29.6742 57.2595 29.4746 57.3374C27.9313 57.9404 27.1691 59.6802 27.772 61.2235C28.3749 62.7667 30.1148 63.529 31.658 62.9261C33.585 62.1732 35.9933 61.1594 37.804 58.5412C39.603 55.9398 40.7116 51.9108 40.4977 45.344Z" fill="#C2C2C2" stroke="white" stroke-width="2" stroke-linecap="round" stroke-linejoin="round"/>
<path d="M61.4805 34.804C60.9443 32.1231 59.8307 30.2228 57.9404 29.0426C56.5434 28.1705 54.8103 27.7501 52.778 27.5995C53.4336 26.6863 54.1298 25.5573 54.5725 24.3162C55.3317 22.1879 55.3666 19.6436 53.2365 17.3237C49.4262 13.1741 43.5279 12.9342 39.2031 16.4689C37.86 14.681 35.8166 13.4269 33.5379 13.0857C30.7974 12.6754 27.7874 13.5939 25.3006 16.327C22.9446 18.9164 22.0763 20.9593 22.3924 23.0883C22.5425 24.0995 22.9504 25.0481 23.4435 25.9864C23.7083 26.4903 24.0247 27.0383 24.3564 27.6094C18.7059 28.1438 15.2097 31.3633 14.2062 35.1146C13.2076 38.8473 14.7608 42.9164 18.7856 44.818C17.717 46.6952 17.903 48.6241 18.6623 50.215C19.5357 52.0452 21.1827 53.4866 22.5776 54.0574C25.427 55.2231 28.2471 55.288 30.8048 54.2464C32.9996 53.3527 34.9236 51.6764 36.4875 49.3373C37.7623 50.7009 39.4109 52.2291 41.4735 53.2984C44.103 54.6616 47.3719 55.2618 51.3157 53.9489C52.584 53.5266 54.4271 52.7021 55.6799 51.1216C56.8629 49.6291 57.4213 47.5885 56.7185 44.9199C58.3867 44.1292 59.7753 43.0228 60.6714 41.4974C61.7225 39.7082 62.0157 37.4801 61.4805 34.804Z" fill="#C2C2C2" stroke="white" stroke-width="2" stroke-linejoin="round"/>
<path d="M49.5002 41C49.5002 41 45 37.5 41 37" stroke="#999999" stroke-width="2" stroke-linecap="round" stroke-linejoin="round"/>
<path d="M27.5 40C30.5 37.5 34 36.5 34 36.5" stroke="#999999" stroke-width="2" stroke-linecap="round" stroke-linejoin="round"/>
<path d="M39.2951 31.8721C39.2562 30.1566 39.2951 27 41 23" stroke="#999999" stroke-width="2" stroke-linecap="round" stroke-linejoin="round"/>
</svg>
