<svg width="350" height="350" viewBox="0 0 350 350" fill="none" xmlns="http://www.w3.org/2000/svg">
<path fill-rule="evenodd" clip-rule="evenodd" d="M185.48 196.973C185.332 189.926 187.286 179.475 195.072 168.073C203.078 156.351 199.149 150.841 194.316 144.065C190.697 138.991 186.572 133.207 186.572 123.573C186.572 113.564 189.937 108.403 192.924 103.821C196.651 98.1033 199.791 93.2866 195.072 81.0735C193.229 76.3016 191.291 72.1883 189.56 68.5144C183.449 55.5418 179.917 48.0458 192.218 36.3677C186.429 37.4657 180.631 39.6554 174.446 42.6411C169.965 43.9687 165.129 45.2964 160.047 46.6917C119.192 57.9084 62.3992 73.5006 45.946 128.641C27.446 190.641 52.946 228.641 74.946 255.141C96.946 281.641 130.946 311.141 145.446 290.641C156.843 274.529 176.573 222.348 185.48 196.973Z" fill="#F0B559"/>
<path fill-rule="evenodd" clip-rule="evenodd" d="M191.705 36.4685C213.238 32.1462 234.501 42.7999 274.946 83.6417C325.946 135.142 320.446 200.642 305.446 241.642C291.182 280.631 272.848 269.43 244.855 252.328C243.411 251.447 241.942 250.549 240.446 249.642C216.046 234.842 193.946 207.475 185.946 195.642C185.678 196.409 185.399 197.204 185.11 198.025C184.739 190.99 186.481 180.057 194.664 168.074C202.67 156.352 198.74 150.842 193.908 144.066C190.289 138.992 186.164 133.208 186.164 123.574C186.164 113.565 189.528 108.404 192.515 103.822C196.243 98.1039 199.383 93.2872 194.664 81.074C192.82 76.3022 190.883 72.1889 189.152 68.515L189.152 68.5149C183.058 55.5796 179.529 48.0893 191.705 36.4685Z" fill="#F0B559"/>
<path d="M192.595 35.8943C214.128 31.572 235.391 42.2257 275.836 83.0675C326.836 134.567 321.336 200.067 306.336 241.067C292.072 280.057 273.738 268.856 245.745 251.754C244.301 250.872 242.832 249.975 241.336 249.067C216.936 234.267 194.836 206.901 186.836 195.067C186.568 195.835 186.289 196.63 186 197.451" stroke="#FED18B" stroke-width="3" stroke-linecap="round" stroke-linejoin="round"/>
<path d="M185.48 196.606C176.573 221.98 156.843 274.161 145.446 290.273C130.946 310.773 96.946 281.273 74.946 254.773C52.946 228.273 27.446 190.273 45.946 128.273C62.3992 73.1329 119.192 57.5407 160.047 46.3241C165.129 44.9287 169.965 43.6011 174.446 42.2734C180.631 39.2878 186.429 37.098 192.218 36" stroke="#FED18B" stroke-width="3" stroke-linecap="round" stroke-linejoin="round"/>
<path opacity="0.5" d="M124.334 261.194C109.453 250.129 89.6637 235.417 74.8344 209.614C66.1799 194.556 62.0593 178.159 61 162" stroke="#D88916" stroke-width="4" stroke-linecap="round"/>
<path d="M185 199C186.833 192.235 190.8 176.765 192 169" stroke="#FED18B" stroke-width="3" stroke-linecap="round" stroke-linejoin="round"/>
<g filter="url(#filter0_d_402_2379)">
<path d="M33.1604 121.5C51.6604 59.5 118.66 41 144.16 30.5C169.66 20 209.978 12.7894 240.66 33.8103C252.59 41.9832 271.382 59.4807 288.552 75.4683L289.66 76.5C304.16 90 333.16 130.857 313.16 138C293.16 145.143 285.16 126 258.66 126C232.16 126 221.66 138 195.16 138C168.66 138 141.16 114.5 111.66 121.5C82.16 128.5 14.6604 183.5 33.1604 121.5Z" fill="url(#paint0_radial_402_2379)"/>
</g>
<path d="M178.66 97.5674C178.66 93.0674 181.66 92.5674 185.16 92.5674C187.66 94.0674 188.16 98.5674 186.16 100.567C184.16 102.567 178.66 102.067 178.66 97.5674Z" fill="#8A583A"/>
<ellipse cx="224" cy="107" rx="9" ry="5" fill="#FFE9E9"/>
<ellipse cx="167" cy="107" rx="9" ry="5" fill="#FFE9E9"/>
<path d="M202.66 99.0674C202.66 94.5674 205.66 94.0674 209.16 94.0674C211.66 95.5674 212.16 100.067 210.16 102.067C208.16 104.067 202.66 103.567 202.66 99.0674Z" fill="#8A583A"/>
<path d="M181.66 115.5C178.16 114.1 178.16 109.957 181.66 109.457C183.51 109.193 187.92 110.773 194.66 111.543C200.669 112.23 204.659 112.086 209.16 111.543C213.66 111 214.66 116.457 209.16 117.5C203.66 118.543 200.279 118.885 194.66 118.5C187.74 118.025 184.419 116.604 181.66 115.5Z" fill="#8A583A"/>
<path d="M199.642 51.4487C199.026 50.8894 198.328 50.1716 197.554 49.3752C197.371 49.187 197.183 48.9944 196.992 48.7985C196.008 47.7915 194.931 46.7153 193.844 45.8105C192.771 44.9174 191.608 44.1219 190.444 43.7554C189.227 43.3719 187.929 43.4435 186.827 44.4098C186.287 44.8833 185.943 45.4621 185.823 46.1226C185.706 46.7649 185.816 47.4006 186.03 47.9846C186.447 49.1252 187.342 50.2851 188.32 51.3538C189.314 52.4409 190.489 53.5321 191.557 54.5214L191.601 54.5621C192.672 55.5546 193.612 56.4247 194.24 57.1416C194.501 57.4384 194.776 57.7597 195.062 58.0947C196.213 59.4386 197.553 61.0039 198.885 62.0966C199.721 62.7824 200.66 63.3758 201.652 63.5801C202.717 63.7994 203.775 63.5528 204.682 62.7017C205.6 61.8418 205.906 60.7724 205.77 59.6746C205.642 58.6384 205.129 57.6081 204.496 56.6659C203.225 54.7761 201.216 52.8782 199.642 51.4487Z" fill="#FFCBCB" stroke="#F8AFAF" stroke-width="2" stroke-linecap="round" stroke-linejoin="round"/>
<path d="M100.642 65.4487C100.026 64.8894 99.3281 64.1716 98.5539 63.3752C98.3709 63.187 98.1837 62.9944 97.9923 62.7985C97.0086 61.7915 95.9314 60.7153 94.8442 59.8105C93.7711 58.9174 92.608 58.1219 91.4442 57.7554C90.2268 57.3719 88.9292 57.4435 87.8271 58.4098C87.287 58.8833 86.9434 59.4621 86.8234 60.1226C86.7067 60.7649 86.8163 61.4006 87.0298 61.9846C87.4468 63.1252 88.3418 64.2851 89.3198 65.3538C90.3146 66.4409 91.4894 67.5321 92.5574 68.5214L92.6013 68.5621C93.6727 69.5546 94.6121 70.4247 95.2406 71.1416C95.5008 71.4384 95.7758 71.7597 96.0626 72.0947C97.213 73.4386 98.553 75.0039 99.8849 76.0966C100.721 76.7824 101.66 77.3758 102.652 77.5801C103.717 77.7994 104.775 77.5528 105.683 76.7017C106.6 75.8418 106.906 74.7724 106.771 73.6746C106.643 72.6384 106.13 71.6081 105.496 70.6659C104.225 68.7761 102.216 66.8782 100.642 65.4487Z" fill="#FFCBCB" stroke="#F8AFAF" stroke-width="2" stroke-linecap="round" stroke-linejoin="round"/>
<path d="M150.018 33.5064C151.013 32.9609 151.786 32.3824 152.305 31.7595C152.833 31.1258 153.138 30.3915 153.054 29.6014C152.971 28.8263 152.533 28.1943 151.986 27.7074C151.44 27.2206 150.721 26.819 149.914 26.4904C148.228 25.8042 145.88 25.6342 144.096 26.1054C143.209 26.3399 142.3 26.776 141.75 27.5573C141.147 28.4131 141.122 29.4619 141.604 30.5379C142.365 32.2383 143.316 33.692 144.79 34.316C146.313 34.961 148.047 34.5864 150.018 33.5064Z" fill="#FFEEB3" stroke="#FFDF6B" stroke-width="2" stroke-linecap="round" stroke-linejoin="round"/>
<path d="M113.018 46.5064C114.013 45.9609 114.786 45.3824 115.305 44.7595C115.833 44.1258 116.138 43.3915 116.054 42.6014C115.971 41.8263 115.533 41.1943 114.986 40.7074C114.44 40.2206 113.721 39.819 112.914 39.4904C111.228 38.8042 108.88 38.6342 107.096 39.1054C106.209 39.3399 105.3 39.776 104.75 40.5573C104.147 41.4131 104.122 42.4619 104.604 43.5379C105.365 45.2383 106.316 46.692 107.79 47.316C109.313 47.961 111.047 47.5864 113.018 46.5064Z" fill="#FFEEB3" stroke="#FFDF6B" stroke-width="2" stroke-linecap="round" stroke-linejoin="round"/>
<path d="M126.018 67.5064C127.013 66.9609 127.786 66.3824 128.305 65.7595C128.833 65.1258 129.138 64.3915 129.054 63.6014C128.971 62.8263 128.533 62.1943 127.986 61.7074C127.44 61.2206 126.721 60.819 125.914 60.4904C124.228 59.8042 121.88 59.6342 120.096 60.1054C119.209 60.3399 118.3 60.776 117.75 61.5573C117.147 62.4131 117.122 63.4619 117.604 64.5379C118.365 66.2383 119.316 67.692 120.79 68.316C122.313 68.961 124.047 68.5864 126.018 67.5064Z" fill="#FFEEB3" stroke="#FFDF6B" stroke-width="2" stroke-linecap="round" stroke-linejoin="round"/>
<path d="M253.018 44.5064C254.013 43.9609 254.786 43.3824 255.305 42.7595C255.833 42.1258 256.138 41.3915 256.054 40.6014C255.971 39.8263 255.533 39.1943 254.986 38.7074C254.44 38.2206 253.721 37.819 252.914 37.4904C251.228 36.8042 248.88 36.6342 247.096 37.1054C246.209 37.3399 245.3 37.776 244.75 38.5573C244.147 39.4131 244.122 40.4619 244.604 41.5379C245.365 43.2383 246.316 44.692 247.79 45.316C249.313 45.961 251.047 45.5864 253.018 44.5064Z" fill="#FFEEB3" stroke="#FFDF6B" stroke-width="2" stroke-linecap="round" stroke-linejoin="round"/>
<path d="M168.018 54.5061C169.013 53.9607 169.786 53.3821 170.305 52.7592C170.833 52.1256 171.138 51.3913 171.054 50.6011C170.971 49.8261 170.533 49.194 169.986 48.7071C169.44 48.2204 168.721 47.8188 167.914 47.4901C166.228 46.804 163.88 46.634 162.096 47.1052C161.209 47.3396 160.3 47.7758 159.75 48.5571C159.147 49.4129 159.122 50.4617 159.604 51.5376C160.365 53.238 161.316 54.6917 162.79 55.3158C164.313 55.9607 166.047 55.5861 168.018 54.5061Z" fill="#CBE6FF" stroke="#A4C9EB" stroke-width="2" stroke-linecap="round" stroke-linejoin="round"/>
<path d="M178.018 23.5064C179.013 22.9609 179.786 22.3824 180.305 21.7595C180.833 21.1258 181.138 20.3915 181.054 19.6014C180.971 18.8263 180.533 18.1943 179.986 17.7074C179.44 17.2206 178.721 16.819 177.914 16.4904C176.228 15.8042 173.88 15.6342 172.096 16.1054C171.209 16.3399 170.3 16.776 169.75 17.5573C169.147 18.4131 169.122 19.4619 169.604 20.5379C170.365 22.2383 171.316 23.692 172.79 24.316C174.313 24.961 176.047 24.5864 178.018 23.5064Z" fill="#CBE6FF" stroke="#A4C9EB" stroke-width="2" stroke-linecap="round" stroke-linejoin="round"/>
<path d="M206.034 30.5064C207.029 29.9609 207.802 29.3824 208.321 28.7595C208.849 28.1258 209.155 27.3915 209.07 26.6014C208.987 25.8263 208.549 25.1943 208.002 24.7074C207.456 24.2206 206.737 23.819 205.93 23.4904C204.244 22.8042 201.896 22.6342 200.112 23.1054C199.225 23.3399 198.316 23.776 197.766 24.5573C197.163 25.4131 197.138 26.4619 197.62 27.5379C198.381 29.2383 199.332 30.692 200.806 31.316C202.329 31.961 204.063 31.5864 206.034 30.5064Z" fill="#CBE6FF" stroke="#A4C9EB" stroke-width="2" stroke-linecap="round" stroke-linejoin="round"/>
<path d="M217.018 53.5064C218.013 52.9609 218.786 52.3824 219.305 51.7595C219.833 51.1258 220.138 50.3915 220.054 49.6014C219.971 48.8263 219.533 48.1943 218.986 47.7074C218.44 47.2206 217.721 46.819 216.914 46.4904C215.228 45.8042 212.88 45.6342 211.096 46.1054C210.209 46.3399 209.3 46.776 208.75 47.5573C208.147 48.4131 208.122 49.4619 208.604 50.5379C209.365 52.2383 210.316 53.692 211.79 54.316C213.313 54.961 215.047 54.5864 217.018 53.5064Z" fill="#FFEEB3" stroke="#FFDF6B" stroke-width="2" stroke-linecap="round" stroke-linejoin="round"/>
<path d="M273.034 72.5064C274.029 71.9609 274.802 71.3824 275.321 70.7595C275.849 70.1258 276.155 69.3915 276.07 68.6014C275.987 67.8263 275.549 67.1943 275.002 66.7074C274.456 66.2206 273.737 65.819 272.93 65.4904C271.244 64.8042 268.896 64.6342 267.112 65.1054C266.225 65.3399 265.316 65.776 264.766 66.5573C264.163 67.4131 264.138 68.4619 264.62 69.5379C265.381 71.2383 266.332 72.692 267.806 73.316C269.329 73.961 271.063 73.5864 273.034 72.5064Z" fill="#CBE6FF" stroke="#A4C9EB" stroke-width="2" stroke-linecap="round" stroke-linejoin="round"/>
<path d="M136.093 43.5069C135.268 43.6165 134.269 43.6862 133.161 43.7636C132.9 43.7819 132.632 43.8006 132.359 43.8203C130.954 43.9219 129.437 44.0501 128.044 44.2966C126.67 44.5399 125.311 44.9149 124.28 45.5672C123.202 46.2496 122.419 47.2871 122.446 48.7525C122.459 49.4707 122.679 50.1067 123.106 50.6246C123.521 51.1283 124.078 51.4549 124.662 51.6687C125.802 52.0863 127.266 52.1513 128.713 52.094C130.186 52.0358 131.777 51.8426 133.222 51.6653L133.282 51.6581C134.731 51.4802 136.002 51.3243 136.955 51.3069C137.35 51.2997 137.773 51.2969 138.214 51.2941C139.983 51.2827 142.043 51.2694 143.738 50.9573C144.801 50.7614 145.86 50.4272 146.657 49.8012C147.512 49.129 148.006 48.1619 147.942 46.9192C147.877 45.6636 147.258 44.7396 146.332 44.1346C145.458 43.5635 144.339 43.2905 143.211 43.1663C140.947 42.9172 138.201 43.2269 136.093 43.5069Z" fill="#FFCBCB" stroke="#F8AFAF" stroke-width="2" stroke-linecap="round" stroke-linejoin="round"/>
<path d="M241.093 54.5069C240.268 54.6165 239.269 54.6862 238.161 54.7636C237.9 54.7819 237.632 54.8006 237.359 54.8203C235.954 54.9219 234.437 55.0501 233.044 55.2966C231.67 55.5399 230.311 55.9149 229.28 56.5672C228.202 57.2496 227.419 58.2871 227.446 59.7525C227.459 60.4707 227.679 61.1067 228.106 61.6246C228.521 62.1283 229.078 62.4549 229.662 62.6687C230.802 63.0863 232.266 63.1513 233.713 63.094C235.186 63.0358 236.777 62.8426 238.222 62.6653L238.282 62.6581C239.731 62.4802 241.002 62.3243 241.955 62.3069C242.35 62.2997 242.773 62.2969 243.214 62.2941C244.983 62.2827 247.043 62.2694 248.738 61.9573C249.801 61.7614 250.86 61.4272 251.657 60.8012C252.512 60.129 253.006 59.1619 252.942 57.9192C252.877 56.6636 252.258 55.7396 251.332 55.1346C250.458 54.5635 249.339 54.2905 248.211 54.1663C245.947 53.9172 243.201 54.2269 241.093 54.5069Z" fill="#FFCBCB" stroke="#F8AFAF" stroke-width="2" stroke-linecap="round" stroke-linejoin="round"/>
<path d="M177.093 29.5069C176.268 29.6165 175.269 29.6862 174.161 29.7636C173.9 29.7819 173.632 29.8006 173.359 29.8203C171.954 29.9219 170.437 30.0501 169.044 30.2966C167.67 30.5399 166.311 30.9149 165.28 31.5672C164.202 32.2496 163.419 33.2871 163.446 34.7525C163.459 35.4707 163.679 36.1067 164.106 36.6246C164.521 37.1283 165.078 37.4549 165.662 37.6687C166.802 38.0863 168.266 38.1513 169.713 38.094C171.186 38.0358 172.777 37.8426 174.222 37.6653L174.282 37.6581C175.731 37.4802 177.002 37.3243 177.955 37.3069C178.35 37.2997 178.773 37.2969 179.214 37.2941C180.983 37.2827 183.043 37.2694 184.738 36.9573C185.801 36.7614 186.86 36.4272 187.657 35.8012C188.512 35.129 189.006 34.1619 188.942 32.9192C188.877 31.6636 188.258 30.7396 187.332 30.1346C186.458 29.5635 185.339 29.2905 184.211 29.1663C181.947 28.9172 179.201 29.2269 177.093 29.5069Z" fill="#FFCBCB" stroke="#F8AFAF" stroke-width="2" stroke-linecap="round" stroke-linejoin="round"/>
<path d="M230.751 34.9958C229.967 34.7183 229.046 34.3264 228.024 33.8915C227.782 33.7887 227.535 33.6836 227.283 33.577C225.986 33.029 224.577 32.4533 223.224 32.0396C221.889 31.6312 220.509 31.3476 219.294 31.4598C218.023 31.5772 216.854 32.1453 216.211 33.4626C215.897 34.1082 215.804 34.7749 215.948 35.4304C216.089 36.0678 216.436 36.6116 216.859 37.0676C217.685 37.958 218.959 38.6813 220.274 39.2885C221.612 39.9061 223.118 40.4578 224.485 40.9569L224.541 40.9774C225.913 41.4781 227.116 41.9171 227.973 42.335C228.328 42.508 228.706 42.6979 229.1 42.8959C230.681 43.6901 232.522 44.6151 234.173 45.1074C235.209 45.4164 236.304 45.6004 237.298 45.4049C238.365 45.1951 239.245 44.5584 239.753 43.4224C240.266 42.2746 240.135 41.1701 239.585 40.2101C239.066 39.3041 238.195 38.5526 237.246 37.9288C235.343 36.6778 232.756 35.7049 230.751 34.9958Z" fill="#FFCBCB" stroke="#F8AFAF" stroke-width="2" stroke-linecap="round" stroke-linejoin="round"/>
<defs>
<filter id="filter0_d_402_2379" x="22" y="16.2903" width="305.971" height="146.388" filterUnits="userSpaceOnUse" color-interpolation-filters="sRGB">
<feFlood flood-opacity="0" result="BackgroundImageFix"/>
<feColorMatrix in="SourceAlpha" type="matrix" values="0 0 0 0 0 0 0 0 0 0 0 0 0 0 0 0 0 0 127 0" result="hardAlpha"/>
<feOffset dy="4"/>
<feGaussianBlur stdDeviation="4"/>
<feComposite in2="hardAlpha" operator="out"/>
<feColorMatrix type="matrix" values="0 0 0 0 0 0 0 0 0 0 0 0 0 0 0 0 0 0 0.04 0"/>
<feBlend mode="normal" in2="BackgroundImageFix" result="effect1_dropShadow_402_2379"/>
<feBlend mode="normal" in="SourceGraphic" in2="effect1_dropShadow_402_2379" result="shape"/>
</filter>
<radialGradient id="paint0_radial_402_2379" cx="0" cy="0" r="1" gradientUnits="userSpaceOnUse" gradientTransform="translate(172.661 27) rotate(86.8202) scale(99.1528 104.597)">
<stop stop-color="#FFFBD9"/>
<stop offset="1" stop-color="white"/>
</radialGradient>
</defs>
</svg>
