<svg width="350" height="350" viewBox="0 0 350 350" fill="none" xmlns="http://www.w3.org/2000/svg">
<defs>
<radialGradient id="paint0_radial_298_3464" cx="0" cy="0" r="1" gradientUnits="userSpaceOnUse" gradientTransform="translate(183 37.8662) rotate(96.0631) scale(235.24 248.157)">
<stop stop-color="#F29B28"/>
<stop offset="1" stop-color="#EFC477"/>
</radialGradient>
<linearGradient id="paint1_linear_298_3464" x1="63" y1="180.434" x2="29" y2="205.934" gradientUnits="userSpaceOnUse">
<stop stop-color="#D98302"/>
<stop offset="1" stop-color="#FE9954"/>
</linearGradient>
<radialGradient id="paint2_radial_298_3464" cx="0" cy="0" r="1" gradientUnits="userSpaceOnUse" gradientTransform="translate(217.692 46.573) rotate(96.0631) scale(235.24 248.157)">
<stop stop-color="#F29B28"/>
<stop offset="1" stop-color="#EFC477"/>
</radialGradient>
<radialGradient id="paint3_radial_298_3464" cx="0" cy="0" r="1" gradientUnits="userSpaceOnUse" gradientTransform="translate(204.692 163.14) rotate(95.7644) scale(117.953 124.43)">
<stop stop-color="#E8890B"/>
<stop offset="1" stop-color="#EFC477" stop-opacity="0"/>
</radialGradient>
<linearGradient id="paint4_linear_298_3464" x1="63.2465" y1="100.309" x2="254.123" y2="144.857" gradientUnits="userSpaceOnUse">
<stop stop-color="white"/>
<stop offset="1" stop-color="white"/>
</linearGradient>
<linearGradient id="paint5_linear_298_3464" x1="104.361" y1="91.4482" x2="54.6314" y2="114.328" gradientUnits="userSpaceOnUse">
<stop stop-color="#E0E0E0"/>
<stop offset="1" stop-color="white"/>
</linearGradient>
</defs>
<path fill-rule="evenodd" clip-rule="evenodd" d="M116.142 28L112.5 44.8659L139 71.866L128.5 105.866L154.5 134.866L144.5 166.866L161.682 183.056C151.745 210.275 135.708 251.031 125.874 264.934C111.374 285.434 77.3738 255.934 55.3738 229.434C33.3738 202.934 7.87374 164.934 26.3738 102.933C39.7368 58.1491 79.7096 39.4526 116.142 28Z" fill="url(#paint0_radial_298_3464)"/>
<path fill-rule="evenodd" clip-rule="evenodd" d="M54.0225 59.8193C41.7352 70.6924 31.8335 84.6351 26.3738 102.933C7.87375 164.933 33.3737 202.933 55.3737 229.433C74.1354 252.032 101.624 276.813 118.304 270.904C118.544 270.592 118.776 270.268 119 269.933C127.931 256.536 117.471 248.759 101 236.513C86.1183 225.449 66.3294 210.736 51.5 184.933C26.7628 141.892 39.0678 87.9142 54.0225 59.8193Z" fill="url(#paint1_linear_298_3464)"/>
<path d="M100.617 237.127C85.7358 226.063 65.9469 211.35 51.1175 185.548C39.9016 166.033 36.3653 143.222 37.5281 121.366" stroke="#FCE9C9" stroke-width="6" stroke-linecap="round"/>
<path d="M134.921 257.519C135.162 257.207 135.394 256.883 135.618 256.547C144.549 243.151 134.089 235.374 117.618 223.127C102.736 212.063 82.9469 197.35 68.1176 171.548C59.4631 156.489 55.3425 140.092 54.2832 123.934" stroke="#D88916" stroke-width="6" stroke-linecap="round"/>
<path d="M119.074 28.6331C119.3 27.5888 118.953 26.5034 118.163 25.7834C117.374 25.0635 116.261 24.8177 115.242 25.1381C78.6943 36.627 37.3287 55.7274 23.499 102.076C14.0787 133.646 15.8268 159.276 22.8385 180.439C29.8289 201.539 41.991 218.01 53.0656 231.35C64.1495 244.701 78.3907 258.983 91.8518 267.356C98.5602 271.529 105.369 274.421 111.675 274.757C118.211 275.106 124.068 272.682 128.323 266.666C133.456 259.409 140.038 245.447 146.503 230.157C153.009 214.766 159.521 197.722 164.5 184.085C164.911 182.959 164.612 181.695 163.739 180.873L147.923 165.97L157.364 135.761C157.679 134.752 157.44 133.651 156.734 132.863L131.868 105.128L141.867 72.7512C142.192 71.698 141.913 70.5512 141.141 69.7646L115.774 43.9185L119.074 28.6331Z" stroke="#FCE9C9" stroke-width="6" stroke-linecap="round" stroke-linejoin="round"/>
<mask id="path-6-outside-1_298_3464" maskUnits="userSpaceOnUse" x="208" y="22" width="129" height="236" fill="black">
<rect fill="white" x="208" y="22" width="129" height="236"/>
<path fill-rule="evenodd" clip-rule="evenodd" d="M221.179 203.473L226.927 195.753L214 160.198L237.647 133.608L226.005 96.4399L248.368 71.4622L234.86 38.3896L246.214 28.9999C258.229 36.5795 272.296 48.6963 290.066 66.6405C341.066 118.14 335.566 183.64 320.566 224.64C308.084 258.756 292.487 254.445 270.03 241.377C266.822 239.51 263.473 237.465 259.974 235.327C258.531 234.445 257.061 233.548 255.566 232.64C242.943 224.984 230.937 213.965 221.179 203.473Z"/>
</mask>
<path fill-rule="evenodd" clip-rule="evenodd" d="M221.179 203.473L226.927 195.753L214 160.198L237.647 133.608L226.005 96.4399L248.368 71.4622L234.86 38.3896L246.214 28.9999C258.229 36.5795 272.296 48.6963 290.066 66.6405C341.066 118.14 335.566 183.64 320.566 224.64C308.084 258.756 292.487 254.445 270.03 241.377C266.822 239.51 263.473 237.465 259.974 235.327C258.531 234.445 257.061 233.548 255.566 232.64C242.943 224.984 230.937 213.965 221.179 203.473Z" fill="url(#paint2_radial_298_3464)"/>
<path d="M226.927 195.753L231.739 199.336C232.945 197.717 233.255 195.6 232.565 193.703L226.927 195.753ZM221.179 203.473L216.366 199.89C214.637 202.213 214.813 205.439 216.785 207.559L221.179 203.473ZM214 160.198L209.517 156.211C208.052 157.858 207.608 160.176 208.361 162.248L214 160.198ZM237.647 133.608L242.131 137.595C243.531 136.02 244.003 133.826 243.373 131.814L237.647 133.608ZM226.005 96.4399L221.535 92.4376C220.124 94.0132 219.647 96.2152 220.279 98.2334L226.005 96.4399ZM248.368 71.4622L252.838 75.4645C254.37 73.7539 254.791 71.3192 253.923 69.1936L248.368 71.4622ZM234.86 38.3896L231.037 33.766C229.015 35.4379 228.314 38.2295 229.306 40.6583L234.86 38.3896ZM246.214 28.9999L249.416 23.9254C247.223 22.5417 244.389 22.7236 242.391 24.3762L246.214 28.9999ZM290.066 66.6405L294.329 62.4186L290.066 66.6405ZM320.566 224.64L326.2 226.702L320.566 224.64ZM270.03 241.377L273.047 236.191H273.047L270.03 241.377ZM259.974 235.327L256.846 240.447L256.846 240.447L259.974 235.327ZM255.566 232.64L258.677 227.51L258.677 227.51L255.566 232.64ZM222.114 192.17L216.366 199.89L225.991 207.056L231.739 199.336L222.114 192.17ZM208.361 162.248L221.288 197.803L232.565 193.703L219.639 158.148L208.361 162.248ZM233.164 129.621L209.517 156.211L218.484 164.186L242.131 137.595L233.164 129.621ZM220.279 98.2334L231.922 135.401L243.373 131.814L231.73 94.6463L220.279 98.2334ZM243.898 67.46L221.535 92.4376L230.475 100.442L252.838 75.4645L243.898 67.46ZM229.306 40.6583L242.814 73.7308L253.923 69.1936L240.415 36.121L229.306 40.6583ZM242.391 24.3762L231.037 33.766L238.684 43.0133L250.038 33.6236L242.391 24.3762ZM294.329 62.4186C276.454 44.3683 262.008 31.8698 249.416 23.9254L243.013 34.0744C254.449 41.2891 268.137 53.0242 285.802 70.8623L294.329 62.4186ZM326.2 226.702C341.635 184.513 347.597 116.209 294.329 62.4186L285.802 70.8623C334.534 120.072 329.496 182.768 314.931 222.579L326.2 226.702ZM267.012 246.563C272.704 249.876 278.281 252.826 283.638 254.727C289.006 256.632 294.589 257.644 300.147 256.6C311.746 254.42 319.817 244.15 326.2 226.702L314.931 222.579C308.833 239.247 302.865 243.879 297.931 244.806C295.222 245.315 291.915 244.931 287.652 243.418C283.379 241.902 278.584 239.413 273.047 236.191L267.012 246.563ZM256.846 240.447C260.333 242.578 263.738 244.658 267.012 246.563L273.047 236.191C269.905 234.363 266.613 232.352 263.102 230.207L256.846 240.447ZM252.454 237.77C253.94 238.672 255.401 239.565 256.846 240.447L263.102 230.207C261.66 229.326 260.183 228.423 258.677 227.51L252.454 237.77ZM216.785 207.559C226.735 218.257 239.171 229.714 252.454 237.771L258.677 227.51C246.715 220.255 235.138 209.673 225.572 199.387L216.785 207.559Z" fill="#FCE9C9" mask="url(#path-6-outside-1_298_3464)"/>
<path fill-rule="evenodd" clip-rule="evenodd" d="M221.179 203.473L226.927 195.753L214 160.198L237.647 133.608L226.005 96.4399L248.368 71.4622L234.86 38.3896L246.214 28.9999C258.229 36.5795 272.296 48.6963 290.066 66.6405C341.066 118.14 335.566 183.64 320.566 224.64C306.301 263.63 287.967 252.429 259.974 235.327C258.531 234.445 257.061 233.548 255.566 232.64C242.943 224.984 230.937 213.965 221.179 203.473Z" fill="url(#paint3_radial_298_3464)"/>
<path d="M71.4006 96.6895L68.7291 96.2724L69.1122 98.949L75.8775 146.213L76.056 147.461L77.258 147.838C77.5807 147.939 78.2524 148.406 79.3162 149.538C80.1732 150.45 81.0816 151.563 82.0667 152.771C82.2246 152.964 82.3844 153.16 82.5463 153.358C83.6849 154.75 84.9193 156.23 86.1573 157.425C87.3421 158.569 88.798 159.724 90.4186 160.088C115.453 165.718 147.764 168.439 177.903 169.009C208.03 169.579 236.168 168.002 252.858 164.968C279.234 160.172 293.085 152.191 297.857 148.949C299.691 147.703 300.459 145.567 300.179 143.545L292.688 89.4451C292.326 86.8293 290.36 85.0464 288.292 84.232C286.225 83.4185 283.611 83.382 281.513 84.7519C275.646 88.5832 265.203 94.107 247.896 99.5935C240.192 102.036 226.794 103.351 210.443 103.841C194.167 104.328 175.191 103.994 156.472 103.23C119.007 101.702 82.7456 98.4612 71.4006 96.6895Z" fill="url(#paint4_linear_298_3464)" stroke="#D2CCB9" stroke-width="4"/>
<path d="M103.722 121.711L95.341 63.9586C95.0237 61.7723 92.9784 60.2293 90.8496 60.8196C76.1686 64.8907 69.0351 78.8164 67.7822 92.5001C69.3053 109.266 67.8752 126.126 72 138C74.7454 145.903 82.9999 158 97.9999 159C94.7014 158.4 92.1548 156.546 90.3678 154C89.7228 153.081 89.1768 152.072 88.7301 151C86.5021 145.652 86.7439 138.723 89.4999 133.5C91.6145 129.493 96.6958 127.415 100.721 126.235C102.702 125.654 104.019 123.754 103.722 121.711Z" fill="url(#paint5_linear_298_3464)"/>
<path d="M94.7665 161C78 156.5 74.7453 145.903 71.9999 138C67.8751 126.126 69.3052 109.266 67.7821 92.5001C69.035 78.8164 76.1685 64.8907 90.8495 60.8196C92.9783 60.2293 95.0236 61.7724 95.3409 63.9586L103.722 121.711C104.019 123.754 102.702 125.654 100.721 126.235C96.6957 127.415 91.6145 129.493 89.4998 133.5C87.0765 138.093 86.5971 144.004 88.0313 149" stroke="#D2CCB9" stroke-width="4" stroke-linecap="round" stroke-linejoin="round"/>
<path d="M182 127.01C182.514 124.624 185.332 120.112 192.49 121.153C201.437 122.455 198.043 133.192 192.49 133.842C188.047 134.363 188.376 138.831 189.096 141" stroke="#ADADAD" stroke-width="5" stroke-linecap="round" stroke-linejoin="round"/>
<ellipse cx="190" cy="150.866" rx="3.49756" ry="3.34976" fill="#ADADAD"/>
</svg>
