<svg width="72" height="72" viewBox="0 0 72 72" fill="none" xmlns="http://www.w3.org/2000/svg">
<path d="M15.5019 57.1375C12.7019 52.3375 13.3352 40.1375 14.0019 34.6375C21.0018 27.1375 58.502 29.1375 58.502 34.6375C58.502 40.1375 57.502 46.1375 56.002 55.1375C54.502 64.1375 19.0019 63.1375 15.5019 57.1375Z" fill="#C4C4C4"/>
<path d="M19.5018 18.1376C23.5018 15.6376 28.0018 18.1376 42.0018 18.1376C47.5017 18.2715 43.502 18.1376 47.502 18.1376C51.502 18.1376 54.502 19.1376 57.002 26.1376C59.502 33.1376 61.002 40.1376 49.002 40.1376C37.002 40.1376 16.5018 41.1376 14.5018 37.6376C12.5018 34.1376 15.5018 20.6376 19.5018 18.1376Z" fill="#D9D9D9"/>
<path d="M17 43.5C27.5 45 41 46 54.5 44" stroke="#949494" stroke-width="2" stroke-linecap="round"/>
<path d="M17.5 48.5C23 49.1667 40 51.5 53.5 48.5" stroke="#949494" stroke-width="2" stroke-linecap="round"/>
<path d="M18 54C27.498 55.3624 42 56.5 52 54" stroke="#949494" stroke-width="2" stroke-linecap="round"/>
<path d="M30.4814 32.9599L34.5325 30.42C35.8645 29.5849 37.5949 30.5423 37.5949 32.1145V32.6349C37.5949 33.8722 38.7175 34.8371 39.8991 34.4702C42.8511 33.5537 43.8344 32.0463 44.8178 29.7269C46.0216 26.8876 41.2064 22.0201 31.9772 24.8595C25.7868 26.7639 26.4978 30.3221 28.1504 32.6175C28.6835 33.3579 29.7084 33.4445 30.4814 32.9599Z" stroke="#C1C1C1" stroke-width="2" stroke-linecap="round" stroke-linejoin="round"/>
</svg>
