<svg width="72" height="72" viewBox="0 0 72 72" fill="none" xmlns="http://www.w3.org/2000/svg">
<path d="M58 38.7452C58 47.9546 53.3495 56.2191 45.4265 59.7011C44.0123 60.3227 41.4277 60.6546 38.8088 60.8306C36.3023 60.999 35.5 61.96 29.1029 60.8306C22.7059 59.7011 13 51.1716 13 38.7452C13 26.3188 22.9265 18.0099 29.1029 17.5687C35.2794 17.1275 31.0882 15.804 38.8088 16.0246C46.5294 16.2452 58 24.1864 58 38.7452Z" fill="#CFCFCF"/>
<ellipse cx="26.6764" cy="36.0981" rx="2.64706" ry="2.64706" fill="#858585"/>
<ellipse cx="43.441" cy="33.451" rx="2.64706" ry="2.64706" fill="#858585"/>
<path fill-rule="evenodd" clip-rule="evenodd" d="M48.5751 40.7377C49.5457 40.6495 50.4041 41.3648 50.4923 42.3354C50.8042 45.7664 47.8569 52.1131 39.0416 53.2885C34.6453 53.8747 31.3373 52.819 28.9583 51.1852C26.6208 49.5799 25.2832 47.4905 24.637 46.1118C24.2233 45.2293 24.6034 44.1786 25.4859 43.7649C26.3683 43.3513 27.4191 43.7313 27.8327 44.6138C28.2894 45.5881 29.268 47.1163 30.9563 48.2758C32.603 49.4066 35.0303 50.2627 38.5752 49.7901C45.6423 48.8478 47.1067 44.0769 46.9774 42.6549C46.8892 41.6843 47.6045 40.8259 48.5751 40.7377Z" fill="#858585"/>
</svg>
