<svg width="72" height="72" viewBox="0 0 72 72" fill="none" xmlns="http://www.w3.org/2000/svg">
<path fill-rule="evenodd" clip-rule="evenodd" d="M37.4344 43.4429C38.5384 43.4069 39.4625 44.2727 39.4985 45.3767C39.9193 58.2953 35.1011 60.5075 31.2944 61.9947C30.2655 62.3967 29.1056 61.8885 28.7037 60.8597C28.3017 59.8308 28.8099 58.671 29.8387 58.269C31.6551 57.5594 35.8822 57.2199 35.5006 45.5069C35.4646 44.403 36.3304 43.4788 37.4344 43.4429Z" fill="#C0C0C0"/>
<path d="M60.4999 35.0001C59.4999 30.0001 56.4999 28.5317 50.7872 28.5317L50.8401 28.4666C52.4364 26.5026 56.132 21.9557 52.4999 18.0001C48.827 14.0001 42.9999 14.0001 38.9999 18.0001C36.7699 13.8658 30.5897 12 26.0402 17C21.4908 22 23.4998 24 26.0402 28.5317C13.5 28.5316 11.5 41.5001 20.3373 44.3574C17.1076 48.0799 20.6338 52.1816 22.9563 53.1318C28.2311 55.2899 33.145 53.2944 36.3366 47.6774C39.0418 50.762 43.6694 55.4404 50.9999 53.0001C53.4043 52.1996 57.4857 50.0158 55.4999 44.3574C59.3247 42.8564 61.4999 40.0001 60.4999 35.0001Z" fill="#C0C0C0"/>
<path d="M49.5002 41.0001C49.5002 41.0001 45 37.5001 41 37.0001" stroke="#979797" stroke-width="2" stroke-linecap="round" stroke-linejoin="round"/>
<path d="M27.5 40.0001C30.5 37.5001 34 36.5001 34 36.5001" stroke="#979797" stroke-width="2" stroke-linecap="round" stroke-linejoin="round"/>
<path d="M39.2951 31.8723C39.2562 30.1568 39.2951 27.0001 41 23.0001" stroke="#979797" stroke-width="2" stroke-linecap="round" stroke-linejoin="round"/>
</svg>
