<svg width="14" height="28" viewBox="0 0 14 28" fill="none" xmlns="http://www.w3.org/2000/svg">
<path d="M6.56923 28C5.31282 28 4.3077 27.2576 4.3077 25.9848C4.3077 24.4646 5.7077 23.2273 7.28719 23.2273C8.72309 23.2273 9.7641 24.3586 9.7641 25.7727C9.7641 27.1869 8.14872 28 6.56923 28ZM0 4.63132C0 4.52526 0.0358993 4.34848 0.0717966 4.17172C0.682054 1.5202 3.66153 0 6.56923 0C11.1282 0 14 2.05051 14 6.43434C14 7.56565 13.8205 8.5202 13.4257 9.29798C12.6718 10.8535 11.7744 11.5253 9.33335 13.3636C8.72309 13.8232 8.40001 14.4596 8.40001 15.2727C8.40001 15.6263 8.43592 16.1212 8.47182 16.7929C8.50771 17.4646 8.5436 17.9596 8.5436 18.3131C8.5436 19.1616 7.57435 19.6919 6.67692 19.6919C5.99486 19.6919 5.52822 19.4091 5.24104 18.8788C4.66668 17.8182 4.70257 17.1111 4.70257 14.8838C4.70257 13.0101 5.60002 12.1263 7.43079 10.8889C8.07694 10.4293 8.57951 10.005 8.97438 9.65151C9.72822 8.94444 10.3744 7.88383 10.3744 6.36363C10.3744 4.27777 8.97436 3.21717 6.82051 3.21717C5.63589 3.21717 3.87692 4.27778 3.12308 5.26768C2.65641 5.9394 2.26155 6.18687 1.54361 6.18687C0.717964 6.18687 0 5.44445 0 4.63132Z" fill="#C6C2B1"/>
</svg>
