<svg width="42" height="42" viewBox="0 0 42 42" fill="none" xmlns="http://www.w3.org/2000/svg">
<path d="M16.535 1.74917L16.571 1.75053L16.6069 1.74966L31.8423 1.38417C36.2649 1.27807 39.9679 4.71273 40.1941 9.13083L40.8317 21.5816L40.2336 32.6298C39.99 37.1293 36.1482 40.5812 31.6485 40.3437L18.851 39.6683L18.7818 39.6646L18.7127 39.6692L10.3475 40.2211C5.84489 40.5181 1.95475 37.1073 1.66056 32.6046L1.16834 25.0709L1.86254 9.31658C2.0602 4.83086 5.84205 1.34606 10.3289 1.51521L16.535 1.74917Z" fill="white" fill-opacity="0.6" stroke="white" stroke-width="2.33333"/>
<path d="M13.6729 14.0728L19.3456 14.5455L28.8001 14.0728" stroke="#5E5C55" stroke-width="2.4" stroke-linecap="round" stroke-linejoin="round"/>
<path d="M13.2002 20.2183L16.2999 19.9365C17.6927 19.8099 19.0964 19.8869 20.467 20.165V20.165C22.1813 20.5128 23.9446 20.5454 25.6705 20.2611L28.8002 19.7456" stroke="#5E5C55" stroke-width="2.4" stroke-linecap="round" stroke-linejoin="round"/>
<path d="M13.2002 26.8365L13.7669 26.7798C16.5352 26.503 19.3225 26.4711 22.0964 26.6845L24.0729 26.8365H28.8002" stroke="#5E5C55" stroke-width="2.4" stroke-linecap="round" stroke-linejoin="round"/>
</svg>
