<svg width="42" height="42" viewBox="0 0 42 42" fill="none" xmlns="http://www.w3.org/2000/svg">
<path d="M16.535 1.74917L16.571 1.75053L16.6069 1.74966L31.8423 1.38417C36.2649 1.27807 39.9679 4.71273 40.1941 9.13083L40.8317 21.5816L40.2336 32.6298C39.99 37.1293 36.1482 40.5812 31.6485 40.3437L18.851 39.6683L18.7818 39.6646L18.7127 39.6692L10.3475 40.2211C5.84489 40.5181 1.95475 37.1073 1.66056 32.6046L1.16834 25.0709L1.86254 9.31658C2.0602 4.83086 5.84205 1.34606 10.3289 1.51521L16.535 1.74917Z" fill="white" fill-opacity="0.6" stroke="white" stroke-width="2.33333"/>
<path d="M13.5 28.5C13.5 28.5 16.875 24.75 18.75 22.875M28.5 13.5C27.75 14.625 20.625 21 18.75 22.875M18.75 22.875C20.625 21 16.875 24.75 18.75 22.875Z" stroke="#5E5C55" stroke-width="2.5" stroke-linecap="round"/>
<path d="M13.5 13.5C13.5 13.5 15.75 15.375 18 17.625C20.25 19.875 22.125 22.125 24.375 24.375C26.625 26.625 27.375 27.375 28.5 28.5" stroke="#5E5C55" stroke-width="2.5" stroke-linecap="round"/>
</svg>
