<svg width="118" height="118" viewBox="0 0 118 118" fill="none" xmlns="http://www.w3.org/2000/svg">
<g id="motion">
<g id="Group 2609861" filter="url(#filter0_d_524_1817)">
<path id="Union" fill-rule="evenodd" clip-rule="evenodd" d="M80.2274 27.7671C71.0562 18.506 66.2 16.0358 61.318 16.9618C59.9947 17.2128 58.6696 17.7131 57.256 18.3955C56.2318 18.699 55.1265 19.0024 53.9648 19.3214C44.6265 21.8852 31.6453 25.4491 27.8846 38.0527C23.656 52.2241 29.4846 60.9098 34.5132 66.9669C39.5417 73.0241 47.3132 79.7669 50.6275 75.0812C53.1969 71.4485 57.6196 59.7948 59.6934 53.9119C59.7221 53.8306 59.7503 53.7505 59.778 53.6715C59.8143 53.568 59.8498 53.4666 59.8845 53.3671C61.7131 56.0719 66.7645 62.3271 72.3417 65.71C72.6836 65.9173 73.0194 66.1225 73.3493 66.3241C79.7478 70.2331 83.9384 72.7933 87.1988 63.8814C90.6274 54.51 91.8845 39.5385 80.2274 27.7671Z" fill="#F0B559"/>
<g id="Group 2609863">
<path id="Vector 813" d="M55.4849 31.8835C56.5122 31.43 57.3883 31.8164 57.7524 32.3125C57.9183 32.5385 58.4612 33.3717 57.9296 34.2541C57.3981 35.1366 56.5636 35.1159 56.335 35.1368C55.9151 35.1752 54.386 34.7838 54.386 33.5482C54.386 33.1136 54.4576 32.3371 55.4849 31.8835Z" fill="#A0450E"/>
<path id="Vector 814" d="M63.917 31.8835C64.9443 31.43 65.8205 31.8164 66.1846 32.3125C66.3504 32.5385 66.8933 33.3717 66.3617 34.2541C65.8302 35.1366 64.9957 35.1159 64.7671 35.1368C64.3472 35.1752 62.8181 34.7838 62.8181 33.5482C62.8181 33.1136 62.8898 32.3371 63.917 31.8835Z" fill="#A0450E"/>
<g id="Group 2609862">
<path id="Vector 736" d="M58.2648 34.3762C61.5333 32.9331 64.3211 34.1625 65.4796 35.7411C66.0073 36.4601 67.7346 39.111 66.0433 41.9189C64.3521 44.7268 61.6969 44.6607 60.9695 44.7273C59.6336 44.8495 54.7684 43.604 54.7683 39.6727C54.7683 38.2901 54.9963 35.8192 58.2648 34.3762Z" fill="white"/>
<path id="Vector 737" d="M59.0349 35.7014C61.2139 34.6519 63.0724 35.546 63.8447 36.6941C64.1965 37.217 65.3481 39.1449 64.2205 41.187C63.093 43.2291 61.3229 43.1811 60.838 43.2295C59.9474 43.3183 56.7039 42.4126 56.7039 39.5534C56.7038 38.5479 56.8559 36.7509 59.0349 35.7014Z" fill="#FFDF6B"/>
<path id="Vector 812" d="M58.791 39.1948C58.791 37.0342 60.6664 36.7979 61.2488 36.7979C61.8313 36.7979 63.2669 37.1626 63.2669 37.1626C63.5384 37.1317 63.8131 37.0479 64.0621 36.972L64.0688 36.97C64.1702 36.4247 65.3799 36.22 66.9319 36.7979C68.872 37.5204 68.4517 40.37 67.0822 41.0547C65.9867 41.6025 64.3604 41.1359 64.0688 40.7428C63.7568 40.7044 63.492 40.6923 63.2669 40.7018C63.2669 40.7018 62.1907 41.7446 61.2488 41.8288C60.307 41.9131 58.791 41.3554 58.791 39.1948Z" fill="#FBD653"/>
</g>
</g>
<path id="Intersect" d="M61.4043 16.8533C66.3261 15.8654 71.1863 18.3005 80.4309 27.6358C92.0881 39.4072 90.8309 54.3786 87.4024 63.7501C84.1419 72.6619 79.9513 70.1018 73.5529 66.1927C73.2229 65.9912 72.8871 65.786 72.5452 65.5786C66.9681 62.1958 61.9166 55.9405 60.0881 53.2358C60.0268 53.4112 59.9631 53.5929 59.897 53.7805" stroke="#FED18B" stroke-width="1.02857" stroke-linecap="round" stroke-linejoin="round"/>
<ellipse id="Ellipse 30" opacity="0.6" cx="50.8024" cy="36.4065" rx="3.2436" ry="1.802" fill="#FFE9E9"/>
<ellipse id="Ellipse 31" opacity="0.6" cx="71.1594" cy="36.4065" rx="3.2436" ry="1.802" fill="#FFE9E9"/>
<path id="Intersect_2" d="M59.778 53.5873C57.7421 59.3872 53.2324 71.3142 50.6275 74.9971C47.3132 79.6828 39.5417 72.9399 34.5132 66.8828C29.4846 60.8257 23.656 52.1399 27.8846 37.9685C31.6453 25.365 44.6265 21.801 53.9648 19.2372C55.1265 18.9183 56.2318 18.6148 57.256 18.3114C58.6696 17.6289 59.9949 17.1284 61.3182 16.8774" stroke="#FED18B" stroke-width="1.02857" stroke-linecap="round" stroke-linejoin="round"/>
<path id="&#235;&#141;&#176;&#236;&#189;&#148;" opacity="0.5" d="M45.8019 68.3506C42.4003 65.8216 37.8771 62.4587 34.4876 56.561C32.5094 53.1191 31.5676 49.3712 31.3254 45.6777" stroke="#D88916" stroke-width="1.37143" stroke-linecap="round"/>
<path id="Vector 813_2" d="M30.8512 43.8077C39.3547 41.4579 54.5344 46.6516 61.0614 49.5421C83.9987 56.0317 83.5791 79.4726 80.5022 87.0251C44.1381 102.55 26.3757 75.8361 23.1589 67.5843C19.942 59.3324 20.2218 46.745 30.8512 43.8077Z" fill="white" stroke="#E1E1E1"/>
<path id="Vector 816" d="M30.7913 50.6282C32.9148 49.5664 40.0981 48.634 51.8425 53.3982" stroke="#E1E1E1"/>
<path id="Vector 814_2" d="M87.3559 42.6587C78.8523 40.3089 67.589 46.6512 61.062 49.5418C38.1247 56.0314 37.425 81.4004 40.502 88.9529C87.6354 105.597 94.3553 70.0023 95.6073 64.897C97.4252 57.4843 97.9852 45.5959 87.3559 42.6587Z" fill="white" stroke="#E1E1E1"/>
<path id="Vector 815" d="M45.4718 90.3761C45.4718 64.2005 54.1974 55.8908 81.1002 49.3745" stroke="#E1E1E1"/>
</g>
</g>
<defs>
<filter id="filter0_d_524_1817" x="0.859375" y="0.134277" width="116.281" height="117.716" filterUnits="userSpaceOnUse" color-interpolation-filters="sRGB">
<feFlood flood-opacity="0" result="BackgroundImageFix"/>
<feColorMatrix in="SourceAlpha" type="matrix" values="0 0 0 0 0 0 0 0 0 0 0 0 0 0 0 0 0 0 127 0" result="hardAlpha"/>
<feOffset dy="4"/>
<feGaussianBlur stdDeviation="10"/>
<feComposite in2="hardAlpha" operator="out"/>
<feColorMatrix type="matrix" values="0 0 0 0 0 0 0 0 0 0 0 0 0 0 0 0 0 0 0.08 0"/>
<feBlend mode="normal" in2="BackgroundImageFix" result="effect1_dropShadow_524_1817"/>
<feBlend mode="normal" in="SourceGraphic" in2="effect1_dropShadow_524_1817" result="shape"/>
</filter>
</defs>
</svg>
